<svg width="351" height="168" viewBox="0 0 351 168" fill="none" xmlns="http://www.w3.org/2000/svg">
<rect x="1" y="1" width="348.35" height="166" rx="11" fill="white" stroke="#F0F0F0" stroke-width="2"/>
<path d="M180.657 117.736C180.135 117.531 179.733 117.232 179.453 116.84C179.173 116.448 179.033 115.972 179.033 115.412C179.033 114.908 179.159 114.455 179.411 114.054C179.663 113.643 180.037 113.321 180.531 113.088C181.035 112.845 181.642 112.724 182.351 112.724C183.061 112.724 183.663 112.845 184.157 113.088C184.661 113.321 185.039 113.643 185.291 114.054C185.553 114.455 185.683 114.908 185.683 115.412C185.683 115.953 185.539 116.429 185.249 116.84C184.96 117.241 184.563 117.54 184.059 117.736C184.638 117.913 185.095 118.226 185.431 118.674C185.777 119.113 185.949 119.645 185.949 120.27C185.949 120.877 185.8 121.409 185.501 121.866C185.203 122.314 184.778 122.664 184.227 122.916C183.686 123.159 183.061 123.28 182.351 123.28C181.642 123.28 181.017 123.159 180.475 122.916C179.943 122.664 179.528 122.314 179.229 121.866C178.931 121.409 178.781 120.877 178.781 120.27C178.781 119.645 178.949 119.108 179.285 118.66C179.621 118.212 180.079 117.904 180.657 117.736ZM184.451 115.566C184.451 114.997 184.265 114.558 183.891 114.25C183.518 113.942 183.005 113.788 182.351 113.788C181.707 113.788 181.199 113.942 180.825 114.25C180.452 114.558 180.265 115.001 180.265 115.58C180.265 116.103 180.457 116.523 180.839 116.84C181.231 117.157 181.735 117.316 182.351 117.316C182.977 117.316 183.481 117.157 183.863 116.84C184.255 116.513 184.451 116.089 184.451 115.566ZM182.351 118.296C181.661 118.296 181.096 118.459 180.657 118.786C180.219 119.103 179.999 119.584 179.999 120.228C179.999 120.825 180.209 121.306 180.629 121.67C181.059 122.034 181.633 122.216 182.351 122.216C183.07 122.216 183.639 122.034 184.059 121.67C184.479 121.306 184.689 120.825 184.689 120.228C184.689 119.603 184.475 119.127 184.045 118.8C183.616 118.464 183.051 118.296 182.351 118.296ZM188.257 123.084C188.015 123.084 187.809 123 187.641 122.832C187.473 122.664 187.389 122.459 187.389 122.216C187.389 121.973 187.473 121.768 187.641 121.6C187.809 121.432 188.015 121.348 188.257 121.348C188.491 121.348 188.687 121.432 188.845 121.6C189.013 121.768 189.097 121.973 189.097 122.216C189.097 122.459 189.013 122.664 188.845 122.832C188.687 123 188.491 123.084 188.257 123.084ZM192.429 117.736C191.906 117.531 191.505 117.232 191.225 116.84C190.945 116.448 190.805 115.972 190.805 115.412C190.805 114.908 190.931 114.455 191.183 114.054C191.435 113.643 191.808 113.321 192.303 113.088C192.807 112.845 193.414 112.724 194.123 112.724C194.832 112.724 195.434 112.845 195.929 113.088C196.433 113.321 196.811 113.643 197.063 114.054C197.324 114.455 197.455 114.908 197.455 115.412C197.455 115.953 197.31 116.429 197.021 116.84C196.732 117.241 196.335 117.54 195.831 117.736C196.41 117.913 196.867 118.226 197.203 118.674C197.548 119.113 197.721 119.645 197.721 120.27C197.721 120.877 197.572 121.409 197.273 121.866C196.974 122.314 196.55 122.664 195.999 122.916C195.458 123.159 194.832 123.28 194.123 123.28C193.414 123.28 192.788 123.159 192.247 122.916C191.715 122.664 191.3 122.314 191.001 121.866C190.702 121.409 190.553 120.877 190.553 120.27C190.553 119.645 190.721 119.108 191.057 118.66C191.393 118.212 191.85 117.904 192.429 117.736ZM196.223 115.566C196.223 114.997 196.036 114.558 195.663 114.25C195.29 113.942 194.776 113.788 194.123 113.788C193.479 113.788 192.97 113.942 192.597 114.25C192.224 114.558 192.037 115.001 192.037 115.58C192.037 116.103 192.228 116.523 192.611 116.84C193.003 117.157 193.507 117.316 194.123 117.316C194.748 117.316 195.252 117.157 195.635 116.84C196.027 116.513 196.223 116.089 196.223 115.566ZM194.123 118.296C193.432 118.296 192.868 118.459 192.429 118.786C191.99 119.103 191.771 119.584 191.771 120.228C191.771 120.825 191.981 121.306 192.401 121.67C192.83 122.034 193.404 122.216 194.123 122.216C194.842 122.216 195.411 122.034 195.831 121.67C196.251 121.306 196.461 120.825 196.461 120.228C196.461 119.603 196.246 119.127 195.817 118.8C195.388 118.464 194.823 118.296 194.123 118.296ZM199.133 115.16C199.133 114.525 199.324 114.021 199.707 113.648C200.09 113.265 200.58 113.074 201.177 113.074C201.774 113.074 202.264 113.265 202.647 113.648C203.03 114.021 203.221 114.525 203.221 115.16C203.221 115.804 203.03 116.317 202.647 116.7C202.264 117.073 201.774 117.26 201.177 117.26C200.58 117.26 200.09 117.073 199.707 116.7C199.324 116.317 199.133 115.804 199.133 115.16ZM207.309 113.228L201.639 123H200.379L206.049 113.228H207.309ZM201.177 113.858C200.86 113.858 200.608 113.97 200.421 114.194C200.244 114.409 200.155 114.731 200.155 115.16C200.155 115.589 200.244 115.916 200.421 116.14C200.608 116.364 200.86 116.476 201.177 116.476C201.494 116.476 201.746 116.364 201.933 116.14C202.12 115.907 202.213 115.58 202.213 115.16C202.213 114.731 202.12 114.409 201.933 114.194C201.746 113.97 201.494 113.858 201.177 113.858ZM204.495 121.068C204.495 120.424 204.686 119.915 205.069 119.542C205.452 119.159 205.942 118.968 206.539 118.968C207.136 118.968 207.622 119.159 207.995 119.542C208.378 119.915 208.569 120.424 208.569 121.068C208.569 121.703 208.378 122.211 207.995 122.594C207.622 122.977 207.136 123.168 206.539 123.168C205.942 123.168 205.452 122.981 205.069 122.608C204.686 122.225 204.495 121.712 204.495 121.068ZM206.525 119.766C206.208 119.766 205.956 119.878 205.769 120.102C205.582 120.317 205.489 120.639 205.489 121.068C205.489 121.488 205.582 121.81 205.769 122.034C205.956 122.249 206.208 122.356 206.525 122.356C206.842 122.356 207.094 122.249 207.281 122.034C207.468 121.81 207.561 121.488 207.561 121.068C207.561 120.639 207.468 120.317 207.281 120.102C207.094 119.878 206.842 119.766 206.525 119.766Z" fill="#ED8975"/>
<path fill-rule="evenodd" clip-rule="evenodd" d="M219.705 116.848C219.397 116.531 219.622 116 220.064 116H225.45C225.891 116 226.116 116.531 225.809 116.848L223.116 119.629C222.919 119.832 222.594 119.832 222.397 119.629L219.705 116.848Z" fill="#ED8975"/>
<path d="M308.367 24.7333C307.226 24.7333 306.301 23.8976 306.301 22.8667C306.301 21.8357 307.226 21 308.367 21C309.508 21 310.432 21.8357 310.432 22.8667C310.432 23.8976 309.508 24.7333 308.367 24.7333Z" fill="#ED8975"/>
<path d="M315.154 24.7333C314.013 24.7333 313.088 23.8976 313.088 22.8667C313.088 21.8357 314.013 21 315.154 21C316.294 21 317.219 21.8357 317.219 22.8667C317.219 23.8976 316.294 24.7333 315.154 24.7333Z" fill="#ED8975"/>
<path d="M321.941 24.7333C320.8 24.7333 319.875 23.8976 319.875 22.8667C319.875 21.8357 320.8 21 321.941 21C323.081 21 324.006 21.8357 324.006 22.8667C324.006 23.8976 323.081 24.7333 321.941 24.7333Z" fill="#ED8975"/>
<path d="M183.2 50.768C184.384 50.768 185.419 51.0027 186.304 51.472C187.189 51.9413 187.872 52.6027 188.352 53.456C188.843 54.2987 189.088 55.2747 189.088 56.384C189.088 57.4827 188.843 58.4587 188.352 59.312C187.872 60.1653 187.184 60.8267 186.288 61.296C185.403 61.7653 184.373 62 183.2 62H178.992V50.768H183.2ZM183.024 59.632C184.059 59.632 184.864 59.3493 185.44 58.784C186.016 58.2187 186.304 57.4187 186.304 56.384C186.304 55.3493 186.016 54.544 185.44 53.968C184.864 53.392 184.059 53.104 183.024 53.104H181.728V59.632H183.024ZM191.993 52.144C191.513 52.144 191.118 52.0053 190.809 51.728C190.51 51.44 190.361 51.088 190.361 50.672C190.361 50.2453 190.51 49.8933 190.809 49.616C191.118 49.328 191.513 49.184 191.993 49.184C192.462 49.184 192.846 49.328 193.145 49.616C193.454 49.8933 193.609 50.2453 193.609 50.672C193.609 51.088 193.454 51.44 193.145 51.728C192.846 52.0053 192.462 52.144 191.993 52.144ZM193.353 53.072V62H190.617V53.072H193.353ZM200.776 52.976C201.821 52.976 202.653 53.3173 203.272 54C203.901 54.672 204.216 55.6 204.216 56.784V62H201.496V57.152C201.496 56.5547 201.341 56.0907 201.032 55.76C200.722 55.4293 200.306 55.264 199.784 55.264C199.261 55.264 198.845 55.4293 198.536 55.76C198.226 56.0907 198.072 56.5547 198.072 57.152V62H195.336V53.072H198.072V54.256C198.349 53.8613 198.722 53.552 199.192 53.328C199.661 53.0933 200.189 52.976 200.776 52.976ZM211.605 52.976C212.629 52.976 213.45 53.3173 214.069 54C214.688 54.672 214.997 55.6 214.997 56.784V62H212.277V57.152C212.277 56.5547 212.122 56.0907 211.813 55.76C211.504 55.4293 211.088 55.264 210.565 55.264C210.042 55.264 209.626 55.4293 209.317 55.76C209.008 56.0907 208.853 56.5547 208.853 57.152V62H206.117V50.16H208.853V54.272C209.13 53.8773 209.509 53.5627 209.989 53.328C210.469 53.0933 211.008 52.976 211.605 52.976ZM225.314 57.392C225.314 57.648 225.298 57.9147 225.266 58.192H219.074C219.117 58.7467 219.293 59.1733 219.602 59.472C219.922 59.76 220.312 59.904 220.77 59.904C221.453 59.904 221.928 59.616 222.194 59.04H225.106C224.957 59.6267 224.685 60.1547 224.29 60.624C223.906 61.0933 223.421 61.4613 222.834 61.728C222.248 61.9947 221.592 62.128 220.866 62.128C219.992 62.128 219.213 61.9413 218.53 61.568C217.848 61.1947 217.314 60.6613 216.93 59.968C216.546 59.2747 216.354 58.464 216.354 57.536C216.354 56.608 216.541 55.7973 216.914 55.104C217.298 54.4107 217.832 53.8773 218.514 53.504C219.197 53.1307 219.981 52.944 220.866 52.944C221.73 52.944 222.498 53.1253 223.17 53.488C223.842 53.8507 224.365 54.368 224.738 55.04C225.122 55.712 225.314 56.496 225.314 57.392ZM222.514 56.672C222.514 56.2027 222.354 55.8293 222.034 55.552C221.714 55.2747 221.314 55.136 220.834 55.136C220.376 55.136 219.986 55.2693 219.666 55.536C219.357 55.8027 219.165 56.1813 219.09 56.672H222.514ZM228.134 52.144C227.654 52.144 227.259 52.0053 226.95 51.728C226.651 51.44 226.502 51.088 226.502 50.672C226.502 50.2453 226.651 49.8933 226.95 49.616C227.259 49.328 227.654 49.184 228.134 49.184C228.603 49.184 228.987 49.328 229.286 49.616C229.595 49.8933 229.75 50.2453 229.75 50.672C229.75 51.088 229.595 51.44 229.286 51.728C228.987 52.0053 228.603 52.144 228.134 52.144ZM229.494 53.072V62H226.758V53.072H229.494ZM234.212 54.56C234.532 54.0693 234.932 53.6853 235.412 53.408C235.892 53.12 236.426 52.976 237.012 52.976V55.872H236.26C235.578 55.872 235.066 56.0213 234.724 56.32C234.383 56.608 234.212 57.12 234.212 57.856V62H231.476V53.072H234.212V54.56ZM242.384 62.128C241.509 62.128 240.72 61.9413 240.016 61.568C239.323 61.1947 238.773 60.6613 238.368 59.968C237.973 59.2747 237.776 58.464 237.776 57.536C237.776 56.6187 237.979 55.8133 238.384 55.12C238.789 54.416 239.344 53.8773 240.048 53.504C240.752 53.1307 241.541 52.944 242.416 52.944C243.291 52.944 244.08 53.1307 244.784 53.504C245.488 53.8773 246.043 54.416 246.448 55.12C246.853 55.8133 247.056 56.6187 247.056 57.536C247.056 58.4533 246.848 59.264 246.432 59.968C246.027 60.6613 245.467 61.1947 244.752 61.568C244.048 61.9413 243.259 62.128 242.384 62.128ZM242.384 59.76C242.907 59.76 243.349 59.568 243.712 59.184C244.085 58.8 244.272 58.2507 244.272 57.536C244.272 56.8213 244.091 56.272 243.728 55.888C243.376 55.504 242.939 55.312 242.416 55.312C241.883 55.312 241.44 55.504 241.088 55.888C240.736 56.2613 240.56 56.8107 240.56 57.536C240.56 58.2507 240.731 58.8 241.072 59.184C241.424 59.568 241.861 59.76 242.384 59.76ZM181.728 78.56C182.048 78.0693 182.448 77.6853 182.928 77.408C183.408 77.12 183.941 76.976 184.528 76.976V79.872H183.776C183.093 79.872 182.581 80.0213 182.24 80.32C181.899 80.608 181.728 81.12 181.728 81.856V86H178.992V77.072H181.728V78.56ZM194.252 81.392C194.252 81.648 194.236 81.9147 194.204 82.192H188.012C188.054 82.7467 188.23 83.1733 188.54 83.472C188.86 83.76 189.249 83.904 189.708 83.904C190.39 83.904 190.865 83.616 191.132 83.04H194.044C193.894 83.6267 193.622 84.1547 193.228 84.624C192.844 85.0933 192.358 85.4613 191.772 85.728C191.185 85.9947 190.529 86.128 189.804 86.128C188.929 86.128 188.15 85.9413 187.468 85.568C186.785 85.1947 186.252 84.6613 185.868 83.968C185.484 83.2747 185.292 82.464 185.292 81.536C185.292 80.608 185.478 79.7973 185.852 79.104C186.236 78.4107 186.769 77.8773 187.452 77.504C188.134 77.1307 188.918 76.944 189.804 76.944C190.668 76.944 191.436 77.1253 192.108 77.488C192.78 77.8507 193.302 78.368 193.676 79.04C194.06 79.712 194.252 80.496 194.252 81.392ZM191.452 80.672C191.452 80.2027 191.292 79.8293 190.972 79.552C190.652 79.2747 190.252 79.136 189.772 79.136C189.313 79.136 188.924 79.2693 188.604 79.536C188.294 79.8027 188.102 80.1813 188.028 80.672H191.452ZM200.671 83.68V86H199.279C198.287 86 197.514 85.76 196.959 85.28C196.404 84.7893 196.127 83.9947 196.127 82.896V79.344H195.039V77.072H196.127V74.896H198.863V77.072H200.655V79.344H198.863V82.928C198.863 83.1947 198.927 83.3867 199.055 83.504C199.183 83.6213 199.396 83.68 199.695 83.68H200.671ZM206.259 86.128C205.384 86.128 204.595 85.9413 203.891 85.568C203.198 85.1947 202.648 84.6613 202.243 83.968C201.848 83.2747 201.651 82.464 201.651 81.536C201.651 80.6187 201.854 79.8133 202.259 79.12C202.664 78.416 203.219 77.8773 203.923 77.504C204.627 77.1307 205.416 76.944 206.291 76.944C207.166 76.944 207.955 77.1307 208.659 77.504C209.363 77.8773 209.918 78.416 210.323 79.12C210.728 79.8133 210.931 80.6187 210.931 81.536C210.931 82.4533 210.723 83.264 210.307 83.968C209.902 84.6613 209.342 85.1947 208.627 85.568C207.923 85.9413 207.134 86.128 206.259 86.128ZM206.259 83.76C206.782 83.76 207.224 83.568 207.587 83.184C207.96 82.8 208.147 82.2507 208.147 81.536C208.147 80.8213 207.966 80.272 207.603 79.888C207.251 79.504 206.814 79.312 206.291 79.312C205.758 79.312 205.315 79.504 204.963 79.888C204.611 80.2613 204.435 80.8107 204.435 81.536C204.435 82.2507 204.606 82.8 204.947 83.184C205.299 83.568 205.736 83.76 206.259 83.76ZM215.119 78.56C215.439 78.0693 215.839 77.6853 216.319 77.408C216.799 77.12 217.332 76.976 217.919 76.976V79.872H217.167C216.484 79.872 215.972 80.0213 215.631 80.32C215.289 80.608 215.119 81.12 215.119 81.856V86H212.383V77.072H215.119V78.56ZM224.666 76.976C225.712 76.976 226.544 77.3173 227.162 78C227.792 78.672 228.106 79.6 228.106 80.784V86H225.386V81.152C225.386 80.5547 225.232 80.0907 224.922 79.76C224.613 79.4293 224.197 79.264 223.674 79.264C223.152 79.264 222.736 79.4293 222.426 79.76C222.117 80.0907 221.962 80.5547 221.962 81.152V86H219.226V77.072H221.962V78.256C222.24 77.8613 222.613 77.552 223.082 77.328C223.552 77.0933 224.08 76.976 224.666 76.976ZM229.464 81.52C229.464 80.6027 229.634 79.7973 229.976 79.104C230.328 78.4107 230.802 77.8773 231.4 77.504C231.997 77.1307 232.664 76.944 233.4 76.944C234.029 76.944 234.578 77.072 235.048 77.328C235.528 77.584 235.896 77.92 236.152 78.336V77.072H238.888V86H236.152V84.736C235.885 85.152 235.512 85.488 235.032 85.744C234.562 86 234.013 86.128 233.384 86.128C232.658 86.128 231.997 85.9413 231.4 85.568C230.802 85.184 230.328 84.6453 229.976 83.952C229.634 83.248 229.464 82.4373 229.464 81.52ZM236.152 81.536C236.152 80.8533 235.96 80.3147 235.576 79.92C235.202 79.5253 234.744 79.328 234.2 79.328C233.656 79.328 233.192 79.5253 232.808 79.92C232.434 80.304 232.248 80.8373 232.248 81.52C232.248 82.2027 232.434 82.7467 232.808 83.152C233.192 83.5467 233.656 83.744 234.2 83.744C234.744 83.744 235.202 83.5467 235.576 83.152C235.96 82.7573 236.152 82.2187 236.152 81.536ZM240.323 81.52C240.323 80.6027 240.494 79.7973 240.835 79.104C241.187 78.4107 241.662 77.8773 242.259 77.504C242.856 77.1307 243.523 76.944 244.259 76.944C244.846 76.944 245.379 77.0667 245.859 77.312C246.35 77.5573 246.734 77.888 247.011 78.304V74.16H249.747V86H247.011V84.72C246.755 85.1467 246.387 85.488 245.907 85.744C245.438 86 244.888 86.128 244.259 86.128C243.523 86.128 242.856 85.9413 242.259 85.568C241.662 85.184 241.187 84.6453 240.835 83.952C240.494 83.248 240.323 82.4373 240.323 81.52ZM247.011 81.536C247.011 80.8533 246.819 80.3147 246.435 79.92C246.062 79.5253 245.603 79.328 245.059 79.328C244.515 79.328 244.051 79.5253 243.667 79.92C243.294 80.304 243.107 80.8373 243.107 81.52C243.107 82.2027 243.294 82.7467 243.667 83.152C244.051 83.5467 244.515 83.744 245.059 83.744C245.603 83.744 246.062 83.5467 246.435 83.152C246.819 82.7573 247.011 82.2187 247.011 81.536ZM255.79 86.128C254.916 86.128 254.126 85.9413 253.422 85.568C252.729 85.1947 252.18 84.6613 251.774 83.968C251.38 83.2747 251.182 82.464 251.182 81.536C251.182 80.6187 251.385 79.8133 251.79 79.12C252.196 78.416 252.75 77.8773 253.454 77.504C254.158 77.1307 254.948 76.944 255.822 76.944C256.697 76.944 257.486 77.1307 258.19 77.504C258.894 77.8773 259.449 78.416 259.854 79.12C260.26 79.8133 260.462 80.6187 260.462 81.536C260.462 82.4533 260.254 83.264 259.838 83.968C259.433 84.6613 258.873 85.1947 258.158 85.568C257.454 85.9413 256.665 86.128 255.79 86.128ZM255.79 83.76C256.313 83.76 256.756 83.568 257.118 83.184C257.492 82.8 257.678 82.2507 257.678 81.536C257.678 80.8213 257.497 80.272 257.134 79.888C256.782 79.504 256.345 79.312 255.822 79.312C255.289 79.312 254.846 79.504 254.494 79.888C254.142 80.2613 253.966 80.8107 253.966 81.536C253.966 82.2507 254.137 82.8 254.478 83.184C254.83 83.568 255.268 83.76 255.79 83.76Z" fill="#091929"/>
<path d="M56.8154 81L55.0634 77.82H54.5714V81H52.5194V72.576H55.9634C56.6274 72.576 57.1914 72.692 57.6554 72.924C58.1274 73.156 58.4794 73.476 58.7114 73.884C58.9434 74.284 59.0594 74.732 59.0594 75.228C59.0594 75.788 58.8994 76.288 58.5794 76.728C58.2674 77.168 57.8034 77.48 57.1874 77.664L59.1314 81H56.8154ZM54.5714 76.368H55.8434C56.2194 76.368 56.4994 76.276 56.6834 76.092C56.8754 75.908 56.9714 75.648 56.9714 75.312C56.9714 74.992 56.8754 74.74 56.6834 74.556C56.4994 74.372 56.2194 74.28 55.8434 74.28H54.5714V76.368ZM66.7195 78.552C66.7195 78.992 66.6035 79.4 66.3715 79.776C66.1475 80.144 65.8115 80.448 65.3635 80.688C64.9235 80.92 64.3995 81.048 63.7915 81.072V82.044H63.0235V81.06C62.1755 80.988 61.4915 80.736 60.9715 80.304C60.4515 79.864 60.1755 79.268 60.1435 78.516H62.3275C62.3755 78.996 62.6075 79.304 63.0235 79.44V77.544C62.3995 77.384 61.8995 77.228 61.5235 77.076C61.1555 76.924 60.8315 76.68 60.5515 76.344C60.2715 76.008 60.1315 75.548 60.1315 74.964C60.1315 74.236 60.3995 73.652 60.9355 73.212C61.4795 72.772 62.1755 72.524 63.0235 72.468V71.496H63.7915V72.468C64.6315 72.532 65.2955 72.776 65.7835 73.2C66.2715 73.624 66.5435 74.212 66.5995 74.964H64.4035C64.3555 74.532 64.1515 74.252 63.7915 74.124V75.984C64.4555 76.168 64.9675 76.332 65.3275 76.476C65.6875 76.62 66.0075 76.86 66.2875 77.196C66.5755 77.524 66.7195 77.976 66.7195 78.552ZM62.3035 74.868C62.3035 75.068 62.3635 75.236 62.4835 75.372C62.6115 75.508 62.7915 75.628 63.0235 75.732V74.064C62.7995 74.104 62.6235 74.192 62.4955 74.328C62.3675 74.456 62.3035 74.636 62.3035 74.868ZM63.7915 79.476C64.0315 79.436 64.2195 79.34 64.3555 79.188C64.4995 79.036 64.5715 78.848 64.5715 78.624C64.5715 78.416 64.5035 78.248 64.3675 78.12C64.2395 77.984 64.0475 77.868 63.7915 77.772V79.476ZM67.97 79.356C68.242 79.14 68.366 79.04 68.342 79.056C69.126 78.408 69.742 77.876 70.19 77.46C70.646 77.044 71.03 76.608 71.342 76.152C71.654 75.696 71.81 75.252 71.81 74.82C71.81 74.492 71.734 74.236 71.582 74.052C71.43 73.868 71.202 73.776 70.898 73.776C70.594 73.776 70.354 73.892 70.178 74.124C70.01 74.348 69.926 74.668 69.926 75.084H67.946C67.962 74.404 68.106 73.836 68.378 73.38C68.658 72.924 69.022 72.588 69.47 72.372C69.926 72.156 70.43 72.048 70.982 72.048C71.934 72.048 72.65 72.292 73.13 72.78C73.618 73.268 73.862 73.904 73.862 74.688C73.862 75.544 73.57 76.34 72.986 77.076C72.402 77.804 71.658 78.516 70.754 79.212H73.994V80.88H67.97V79.356ZM77.1054 78.432C77.2254 79.064 77.5934 79.38 78.2094 79.38C78.6334 79.38 78.9334 79.192 79.1094 78.816C79.2854 78.44 79.3734 77.828 79.3734 76.98C79.1974 77.228 78.9574 77.42 78.6534 77.556C78.3494 77.692 78.0094 77.76 77.6334 77.76C77.1214 77.76 76.6654 77.656 76.2654 77.448C75.8654 77.232 75.5494 76.916 75.3174 76.5C75.0934 76.076 74.9814 75.564 74.9814 74.964C74.9814 74.372 75.1014 73.856 75.3414 73.416C75.5894 72.976 75.9374 72.636 76.3854 72.396C76.8414 72.156 77.3774 72.036 77.9934 72.036C79.1774 72.036 80.0054 72.404 80.4774 73.14C80.9494 73.876 81.1854 74.96 81.1854 76.392C81.1854 77.432 81.0894 78.292 80.8974 78.972C80.7134 79.644 80.3974 80.156 79.9494 80.508C79.5094 80.86 78.9054 81.036 78.1374 81.036C77.5294 81.036 77.0094 80.916 76.5774 80.676C76.1534 80.436 75.8254 80.12 75.5934 79.728C75.3694 79.336 75.2414 78.904 75.2094 78.432H77.1054ZM78.1014 76.14C78.4374 76.14 78.7054 76.04 78.9054 75.84C79.1054 75.632 79.2054 75.352 79.2054 75C79.2054 74.616 79.1014 74.32 78.8934 74.112C78.6854 73.904 78.4054 73.8 78.0534 73.8C77.7014 73.8 77.4214 73.908 77.2134 74.124C77.0134 74.332 76.9134 74.62 76.9134 74.988C76.9134 75.332 77.0134 75.612 77.2134 75.828C77.4214 76.036 77.7174 76.14 78.1014 76.14ZM84.4882 78.432C84.6082 79.064 84.9762 79.38 85.5922 79.38C86.0162 79.38 86.3162 79.192 86.4922 78.816C86.6682 78.44 86.7562 77.828 86.7562 76.98C86.5802 77.228 86.3402 77.42 86.0362 77.556C85.7322 77.692 85.3922 77.76 85.0162 77.76C84.5042 77.76 84.0482 77.656 83.6482 77.448C83.2482 77.232 82.9322 76.916 82.7002 76.5C82.4762 76.076 82.3642 75.564 82.3642 74.964C82.3642 74.372 82.4842 73.856 82.7242 73.416C82.9722 72.976 83.3202 72.636 83.7682 72.396C84.2242 72.156 84.7602 72.036 85.3762 72.036C86.5602 72.036 87.3882 72.404 87.8602 73.14C88.3322 73.876 88.5682 74.96 88.5682 76.392C88.5682 77.432 88.4722 78.292 88.2802 78.972C88.0962 79.644 87.7802 80.156 87.3322 80.508C86.8922 80.86 86.2882 81.036 85.5202 81.036C84.9122 81.036 84.3922 80.916 83.9602 80.676C83.5362 80.436 83.2082 80.12 82.9762 79.728C82.7522 79.336 82.6242 78.904 82.5922 78.432H84.4882ZM85.4842 76.14C85.8202 76.14 86.0882 76.04 86.2882 75.84C86.4882 75.632 86.5882 75.352 86.5882 75C86.5882 74.616 86.4842 74.32 86.2762 74.112C86.0682 73.904 85.7882 73.8 85.4362 73.8C85.0842 73.8 84.8042 73.908 84.5962 74.124C84.3962 74.332 84.2962 74.62 84.2962 74.988C84.2962 75.332 84.3962 75.612 84.5962 75.828C84.8042 76.036 85.1002 76.14 85.4842 76.14ZM92.075 79.104L90.743 82.548H89.435L90.131 79.104H92.075ZM93.1084 76.5C93.1084 75.124 93.3724 74.04 93.9004 73.248C94.4364 72.456 95.2964 72.06 96.4804 72.06C97.6644 72.06 98.5204 72.456 99.0484 73.248C99.5844 74.04 99.8524 75.124 99.8524 76.5C99.8524 77.892 99.5844 78.984 99.0484 79.776C98.5204 80.568 97.6644 80.964 96.4804 80.964C95.2964 80.964 94.4364 80.568 93.9004 79.776C93.3724 78.984 93.1084 77.892 93.1084 76.5ZM97.8364 76.5C97.8364 75.692 97.7484 75.072 97.5724 74.64C97.3964 74.2 97.0324 73.98 96.4804 73.98C95.9284 73.98 95.5644 74.2 95.3884 74.64C95.2124 75.072 95.1244 75.692 95.1244 76.5C95.1244 77.044 95.1564 77.496 95.2204 77.856C95.2844 78.208 95.4124 78.496 95.6044 78.72C95.8044 78.936 96.0964 79.044 96.4804 79.044C96.8644 79.044 97.1524 78.936 97.3444 78.72C97.5444 78.496 97.6764 78.208 97.7404 77.856C97.8044 77.496 97.8364 77.044 97.8364 76.5ZM100.936 76.5C100.936 75.124 101.2 74.04 101.728 73.248C102.264 72.456 103.124 72.06 104.308 72.06C105.492 72.06 106.348 72.456 106.876 73.248C107.412 74.04 107.68 75.124 107.68 76.5C107.68 77.892 107.412 78.984 106.876 79.776C106.348 80.568 105.492 80.964 104.308 80.964C103.124 80.964 102.264 80.568 101.728 79.776C101.2 78.984 100.936 77.892 100.936 76.5ZM105.664 76.5C105.664 75.692 105.576 75.072 105.4 74.64C105.224 74.2 104.86 73.98 104.308 73.98C103.756 73.98 103.392 74.2 103.216 74.64C103.04 75.072 102.952 75.692 102.952 76.5C102.952 77.044 102.984 77.496 103.048 77.856C103.112 78.208 103.24 78.496 103.432 78.72C103.632 78.936 103.924 79.044 104.308 79.044C104.692 79.044 104.98 78.936 105.172 78.72C105.372 78.496 105.504 78.208 105.568 77.856C105.632 77.496 105.664 77.044 105.664 76.5Z" fill="#091929"/>
<path d="M124.752 78.271C124.752 100.023 105.074 118.497 79.7081 118.497C54.3425 118.497 34.6638 100.023 34.6638 78.271C34.6638 56.5192 54.3425 38.0454 79.7081 38.0454C105.074 38.0454 124.752 56.5192 124.752 78.271Z" stroke="#091929" stroke-width="10"/>
<path d="M76.6269 38.1398C87.1516 37.4945 97.5551 40.1735 106.056 45.6522C114.55 51.1263 120.57 59.0169 123.227 67.8992C125.881 76.7679 125.058 86.194 120.864 94.6116C116.661 103.045 109.292 110.014 99.8996 114.224C90.503 118.436 79.7419 119.584 69.4764 117.444C59.2123 115.303 50.1854 110.032 43.8789 102.639C37.583 95.2594 34.3757 86.2194 34.6842 77.0629C34.9927 67.9046 38.8052 59.0415 45.6037 52.0033" stroke="#53D3D1" stroke-width="10" stroke-linecap="round"/>
</svg>
