<svg width="351" height="168" viewBox="0 0 351 168" fill="none" xmlns="http://www.w3.org/2000/svg">
<rect x="1" y="1" width="348.35" height="166" rx="11" fill="white" stroke="#F0F0F0" stroke-width="2"/>
<path d="M161.955 118.124C162.971 117.308 163.767 116.64 164.343 116.12C164.919 115.592 165.403 115.044 165.795 114.476C166.195 113.9 166.395 113.336 166.395 112.784C166.395 112.264 166.267 111.856 166.011 111.56C165.763 111.256 165.359 111.104 164.799 111.104C164.255 111.104 163.831 111.276 163.527 111.62C163.231 111.956 163.071 112.408 163.047 112.976H161.991C162.023 112.08 162.295 111.388 162.807 110.9C163.319 110.412 163.979 110.168 164.787 110.168C165.611 110.168 166.263 110.396 166.743 110.852C167.231 111.308 167.475 111.936 167.475 112.736C167.475 113.4 167.275 114.048 166.875 114.68C166.483 115.304 166.035 115.856 165.531 116.336C165.027 116.808 164.383 117.36 163.599 117.992H167.727V118.904H161.955V118.124ZM168.857 118.124C169.873 117.308 170.669 116.64 171.245 116.12C171.821 115.592 172.305 115.044 172.697 114.476C173.097 113.9 173.297 113.336 173.297 112.784C173.297 112.264 173.169 111.856 172.913 111.56C172.665 111.256 172.261 111.104 171.701 111.104C171.157 111.104 170.733 111.276 170.429 111.62C170.133 111.956 169.973 112.408 169.949 112.976H168.893C168.925 112.08 169.197 111.388 169.709 110.9C170.221 110.412 170.881 110.168 171.689 110.168C172.513 110.168 173.165 110.396 173.645 110.852C174.133 111.308 174.377 111.936 174.377 112.736C174.377 113.4 174.177 114.048 173.777 114.68C173.385 115.304 172.937 115.856 172.433 116.336C171.929 116.808 171.285 117.36 170.501 117.992H174.629V118.904H168.857V118.124ZM176.42 119.072C176.212 119.072 176.036 119 175.892 118.856C175.748 118.712 175.676 118.536 175.676 118.328C175.676 118.12 175.748 117.944 175.892 117.8C176.036 117.656 176.212 117.584 176.42 117.584C176.62 117.584 176.788 117.656 176.924 117.8C177.068 117.944 177.14 118.12 177.14 118.328C177.14 118.536 177.068 118.712 176.924 118.856C176.788 119 176.62 119.072 176.42 119.072ZM179.995 114.488C179.547 114.312 179.203 114.056 178.963 113.72C178.723 113.384 178.603 112.976 178.603 112.496C178.603 112.064 178.711 111.676 178.927 111.332C179.143 110.98 179.463 110.704 179.887 110.504C180.319 110.296 180.839 110.192 181.447 110.192C182.055 110.192 182.571 110.296 182.995 110.504C183.427 110.704 183.751 110.98 183.967 111.332C184.191 111.676 184.303 112.064 184.303 112.496C184.303 112.96 184.179 113.368 183.931 113.72C183.683 114.064 183.343 114.32 182.911 114.488C183.407 114.64 183.799 114.908 184.087 115.292C184.383 115.668 184.531 116.124 184.531 116.66C184.531 117.18 184.403 117.636 184.147 118.028C183.891 118.412 183.527 118.712 183.055 118.928C182.591 119.136 182.055 119.24 181.447 119.24C180.839 119.24 180.303 119.136 179.839 118.928C179.383 118.712 179.027 118.412 178.771 118.028C178.515 117.636 178.387 117.18 178.387 116.66C178.387 116.124 178.531 115.664 178.819 115.28C179.107 114.896 179.499 114.632 179.995 114.488ZM183.247 112.628C183.247 112.14 183.087 111.764 182.767 111.5C182.447 111.236 182.007 111.104 181.447 111.104C180.895 111.104 180.459 111.236 180.139 111.5C179.819 111.764 179.659 112.144 179.659 112.64C179.659 113.088 179.823 113.448 180.151 113.72C180.487 113.992 180.919 114.128 181.447 114.128C181.983 114.128 182.415 113.992 182.743 113.72C183.079 113.44 183.247 113.076 183.247 112.628ZM181.447 114.968C180.855 114.968 180.371 115.108 179.995 115.388C179.619 115.66 179.431 116.072 179.431 116.624C179.431 117.136 179.611 117.548 179.971 117.86C180.339 118.172 180.831 118.328 181.447 118.328C182.063 118.328 182.551 118.172 182.911 117.86C183.271 117.548 183.451 117.136 183.451 116.624C183.451 116.088 183.267 115.68 182.899 115.4C182.531 115.112 182.047 114.968 181.447 114.968ZM185.742 112.28C185.742 111.736 185.906 111.304 186.234 110.984C186.562 110.656 186.982 110.492 187.494 110.492C188.006 110.492 188.426 110.656 188.754 110.984C189.082 111.304 189.246 111.736 189.246 112.28C189.246 112.832 189.082 113.272 188.754 113.6C188.426 113.92 188.006 114.08 187.494 114.08C186.982 114.08 186.562 113.92 186.234 113.6C185.906 113.272 185.742 112.832 185.742 112.28ZM192.75 110.624L187.89 119H186.81L191.67 110.624H192.75ZM187.494 111.164C187.222 111.164 187.006 111.26 186.846 111.452C186.694 111.636 186.618 111.912 186.618 112.28C186.618 112.648 186.694 112.928 186.846 113.12C187.006 113.312 187.222 113.408 187.494 113.408C187.766 113.408 187.982 113.312 188.142 113.12C188.302 112.92 188.382 112.64 188.382 112.28C188.382 111.912 188.302 111.636 188.142 111.452C187.982 111.26 187.766 111.164 187.494 111.164ZM190.338 117.344C190.338 116.792 190.502 116.356 190.83 116.036C191.158 115.708 191.578 115.544 192.09 115.544C192.602 115.544 193.018 115.708 193.338 116.036C193.666 116.356 193.83 116.792 193.83 117.344C193.83 117.888 193.666 118.324 193.338 118.652C193.018 118.98 192.602 119.144 192.09 119.144C191.578 119.144 191.158 118.984 190.83 118.664C190.502 118.336 190.338 117.896 190.338 117.344ZM192.078 116.228C191.806 116.228 191.59 116.324 191.43 116.516C191.27 116.7 191.19 116.976 191.19 117.344C191.19 117.704 191.27 117.98 191.43 118.172C191.59 118.356 191.806 118.448 192.078 118.448C192.35 118.448 192.566 118.356 192.726 118.172C192.886 117.98 192.966 117.704 192.966 117.344C192.966 116.976 192.886 116.7 192.726 116.516C192.566 116.324 192.35 116.228 192.078 116.228Z" fill="#ED8975"/>
<path fill-rule="evenodd" clip-rule="evenodd" d="M206.997 117.152C207.304 117.469 207.08 118 206.638 118H201.252C200.811 118 200.586 117.469 200.893 117.152L203.586 114.371C203.782 114.168 204.108 114.168 204.304 114.371L206.997 117.152Z" fill="#ED8975"/>
<path d="M309.473 26.7333C308.332 26.7333 307.408 25.8976 307.408 24.8667C307.408 23.8357 308.332 23 309.473 23C310.614 23 311.539 23.8357 311.539 24.8667C311.539 25.8976 310.614 26.7333 309.473 26.7333Z" fill="#ED8975"/>
<path d="M316.26 26.7333C315.119 26.7333 314.195 25.8976 314.195 24.8667C314.195 23.8357 315.119 23 316.26 23C317.401 23 318.326 23.8357 318.326 24.8667C318.326 25.8976 317.401 26.7333 316.26 26.7333Z" fill="#ED8975"/>
<path d="M323.047 26.7333C321.906 26.7333 320.981 25.8976 320.981 24.8667C320.981 23.8357 321.906 23 323.047 23C324.188 23 325.112 23.8357 325.112 24.8667C325.112 25.8976 324.188 26.7333 323.047 26.7333Z" fill="#ED8975"/>
<path d="M172.383 63H169.647L165.071 56.072V63H162.335V51.768H165.071L169.647 58.728V51.768H172.383V63ZM183.182 54.072V63H180.446V61.784C180.169 62.1787 179.79 62.4987 179.31 62.744C178.841 62.9787 178.318 63.096 177.742 63.096C177.06 63.096 176.457 62.9467 175.934 62.648C175.412 62.3387 175.006 61.896 174.718 61.32C174.43 60.744 174.286 60.0667 174.286 59.288V54.072H177.006V58.92C177.006 59.5173 177.161 59.9813 177.47 60.312C177.78 60.6427 178.196 60.808 178.718 60.808C179.252 60.808 179.673 60.6427 179.982 60.312C180.292 59.9813 180.446 59.5173 180.446 58.92V54.072H183.182ZM180.638 51.848L176.782 53.464V51.576L180.638 49.72V51.848ZM196.54 53.976C197.649 53.976 198.529 54.312 199.18 54.984C199.841 55.656 200.172 56.5893 200.172 57.784V63H197.452V58.152C197.452 57.576 197.297 57.1333 196.988 56.824C196.689 56.504 196.273 56.344 195.74 56.344C195.206 56.344 194.785 56.504 194.476 56.824C194.177 57.1333 194.028 57.576 194.028 58.152V63H191.308V58.152C191.308 57.576 191.153 57.1333 190.844 56.824C190.545 56.504 190.129 56.344 189.596 56.344C189.062 56.344 188.641 56.504 188.332 56.824C188.033 57.1333 187.884 57.576 187.884 58.152V63H185.148V54.072H187.884V55.192C188.161 54.8187 188.524 54.5253 188.972 54.312C189.42 54.088 189.926 53.976 190.492 53.976C191.164 53.976 191.761 54.12 192.284 54.408C192.817 54.696 193.233 55.1067 193.532 55.64C193.841 55.1493 194.262 54.7493 194.796 54.44C195.329 54.1307 195.91 53.976 196.54 53.976ZM210.501 58.392C210.501 58.648 210.485 58.9147 210.453 59.192H204.261C204.304 59.7467 204.48 60.1733 204.789 60.472C205.109 60.76 205.498 60.904 205.957 60.904C206.64 60.904 207.114 60.616 207.381 60.04H210.293C210.144 60.6267 209.872 61.1547 209.477 61.624C209.093 62.0933 208.608 62.4613 208.021 62.728C207.434 62.9947 206.778 63.128 206.053 63.128C205.178 63.128 204.4 62.9413 203.717 62.568C203.034 62.1947 202.501 61.6613 202.117 60.968C201.733 60.2747 201.541 59.464 201.541 58.536C201.541 57.608 201.728 56.7973 202.101 56.104C202.485 55.4107 203.018 54.8773 203.701 54.504C204.384 54.1307 205.168 53.944 206.053 53.944C206.917 53.944 207.685 54.1253 208.357 54.488C209.029 54.8507 209.552 55.368 209.925 56.04C210.309 56.712 210.501 57.496 210.501 58.392ZM207.701 57.672C207.701 57.2027 207.541 56.8293 207.221 56.552C206.901 56.2747 206.501 56.136 206.021 56.136C205.562 56.136 205.173 56.2693 204.853 56.536C204.544 56.8027 204.352 57.1813 204.277 57.672H207.701ZM214.68 55.56C215 55.0693 215.4 54.6853 215.88 54.408C216.36 54.12 216.894 53.976 217.48 53.976V56.872H216.728C216.046 56.872 215.534 57.0213 215.192 57.32C214.851 57.608 214.68 58.12 214.68 58.856V63H211.944V54.072H214.68V55.56ZM222.852 63.128C221.977 63.128 221.188 62.9413 220.484 62.568C219.791 62.1947 219.241 61.6613 218.836 60.968C218.441 60.2747 218.244 59.464 218.244 58.536C218.244 57.6187 218.447 56.8133 218.852 56.12C219.257 55.416 219.812 54.8773 220.516 54.504C221.22 54.1307 222.009 53.944 222.884 53.944C223.759 53.944 224.548 54.1307 225.252 54.504C225.956 54.8773 226.511 55.416 226.916 56.12C227.321 56.8133 227.524 57.6187 227.524 58.536C227.524 59.4533 227.316 60.264 226.9 60.968C226.495 61.6613 225.935 62.1947 225.22 62.568C224.516 62.9413 223.727 63.128 222.852 63.128ZM222.852 60.76C223.375 60.76 223.817 60.568 224.18 60.184C224.553 59.8 224.74 59.2507 224.74 58.536C224.74 57.8213 224.559 57.272 224.196 56.888C223.844 56.504 223.407 56.312 222.884 56.312C222.351 56.312 221.908 56.504 221.556 56.888C221.204 57.2613 221.028 57.8107 221.028 58.536C221.028 59.2507 221.199 59.8 221.54 60.184C221.892 60.568 222.329 60.76 222.852 60.76ZM231.822 58.52C231.822 57.6027 231.993 56.7973 232.334 56.104C232.686 55.4107 233.161 54.8773 233.758 54.504C234.356 54.1307 235.022 53.944 235.758 53.944C236.345 53.944 236.878 54.0667 237.358 54.312C237.849 54.5573 238.233 54.888 238.51 55.304V51.16H241.246V63H238.51V61.72C238.254 62.1467 237.886 62.488 237.406 62.744C236.937 63 236.388 63.128 235.758 63.128C235.022 63.128 234.356 62.9413 233.758 62.568C233.161 62.184 232.686 61.6453 232.334 60.952C231.993 60.248 231.822 59.4373 231.822 58.52ZM238.51 58.536C238.51 57.8533 238.318 57.3147 237.934 56.92C237.561 56.5253 237.102 56.328 236.558 56.328C236.014 56.328 235.55 56.5253 235.166 56.92C234.793 57.304 234.606 57.8373 234.606 58.52C234.606 59.2027 234.793 59.7467 235.166 60.152C235.55 60.5467 236.014 60.744 236.558 60.744C237.102 60.744 237.561 60.5467 237.934 60.152C238.318 59.7573 238.51 59.2187 238.51 58.536ZM251.642 58.392C251.642 58.648 251.626 58.9147 251.594 59.192H245.402C245.444 59.7467 245.62 60.1733 245.93 60.472C246.25 60.76 246.639 60.904 247.098 60.904C247.78 60.904 248.255 60.616 248.522 60.04H251.434C251.284 60.6267 251.012 61.1547 250.618 61.624C250.234 62.0933 249.748 62.4613 249.162 62.728C248.575 62.9947 247.919 63.128 247.194 63.128C246.319 63.128 245.54 62.9413 244.858 62.568C244.175 62.1947 243.642 61.6613 243.258 60.968C242.874 60.2747 242.682 59.464 242.682 58.536C242.682 57.608 242.868 56.7973 243.242 56.104C243.626 55.4107 244.159 54.8773 244.842 54.504C245.524 54.1307 246.308 53.944 247.194 53.944C248.058 53.944 248.826 54.1253 249.498 54.488C250.17 54.8507 250.692 55.368 251.066 56.04C251.45 56.712 251.642 57.496 251.642 58.392ZM248.842 57.672C248.842 57.2027 248.682 56.8293 248.362 56.552C248.042 56.2747 247.642 56.136 247.162 56.136C246.703 56.136 246.314 56.2693 245.994 56.536C245.684 56.8027 245.492 57.1813 245.418 57.672H248.842ZM171.151 78.072V87H168.415V85.784C168.138 86.1787 167.759 86.4987 167.279 86.744C166.81 86.9787 166.287 87.096 165.711 87.096C165.028 87.096 164.426 86.9467 163.903 86.648C163.38 86.3387 162.975 85.896 162.687 85.32C162.399 84.744 162.255 84.0667 162.255 83.288V78.072H164.975V82.92C164.975 83.5173 165.13 83.9813 165.439 84.312C165.748 84.6427 166.164 84.808 166.687 84.808C167.22 84.808 167.642 84.6427 167.951 84.312C168.26 83.9813 168.415 83.5173 168.415 82.92V78.072H171.151ZM176.748 87.128C175.97 87.128 175.276 86.9947 174.668 86.728C174.06 86.4613 173.58 86.0987 173.228 85.64C172.876 85.1707 172.679 84.648 172.636 84.072H175.34C175.372 84.3813 175.516 84.632 175.772 84.824C176.028 85.016 176.343 85.112 176.716 85.112C177.058 85.112 177.319 85.048 177.5 84.92C177.692 84.7813 177.788 84.6053 177.788 84.392C177.788 84.136 177.655 83.9493 177.388 83.832C177.122 83.704 176.69 83.5653 176.092 83.416C175.452 83.2667 174.919 83.112 174.492 82.952C174.066 82.7813 173.698 82.52 173.388 82.168C173.079 81.8053 172.924 81.32 172.924 80.712C172.924 80.2 173.063 79.736 173.34 79.32C173.628 78.8933 174.044 78.5573 174.588 78.312C175.143 78.0667 175.799 77.944 176.556 77.944C177.676 77.944 178.556 78.2213 179.196 78.776C179.847 79.3307 180.22 80.0667 180.316 80.984H177.788C177.746 80.6747 177.607 80.4293 177.372 80.248C177.148 80.0667 176.85 79.976 176.476 79.976C176.156 79.976 175.911 80.04 175.74 80.168C175.57 80.2853 175.484 80.4507 175.484 80.664C175.484 80.92 175.618 81.112 175.884 81.24C176.162 81.368 176.588 81.496 177.164 81.624C177.826 81.7947 178.364 81.9653 178.78 82.136C179.196 82.296 179.559 82.5627 179.868 82.936C180.188 83.2987 180.354 83.7893 180.364 84.408C180.364 84.9307 180.215 85.4 179.916 85.816C179.628 86.2213 179.207 86.5413 178.652 86.776C178.108 87.0107 177.474 87.128 176.748 87.128ZM190.854 78.072V87H188.118V85.784C187.841 86.1787 187.462 86.4987 186.982 86.744C186.513 86.9787 185.99 87.096 185.414 87.096C184.731 87.096 184.129 86.9467 183.606 86.648C183.083 86.3387 182.678 85.896 182.39 85.32C182.102 84.744 181.958 84.0667 181.958 83.288V78.072H184.678V82.92C184.678 83.5173 184.833 83.9813 185.142 84.312C185.451 84.6427 185.867 84.808 186.39 84.808C186.923 84.808 187.345 84.6427 187.654 84.312C187.963 83.9813 188.118 83.5173 188.118 82.92V78.072H190.854ZM192.275 82.52C192.275 81.6027 192.446 80.7973 192.787 80.104C193.139 79.4107 193.614 78.8773 194.211 78.504C194.809 78.1307 195.475 77.944 196.211 77.944C196.841 77.944 197.39 78.072 197.859 78.328C198.339 78.584 198.707 78.92 198.963 79.336V78.072H201.699V87H198.963V85.736C198.697 86.152 198.323 86.488 197.843 86.744C197.374 87 196.825 87.128 196.195 87.128C195.47 87.128 194.809 86.9413 194.211 86.568C193.614 86.184 193.139 85.6453 192.787 84.952C192.446 84.248 192.275 83.4373 192.275 82.52ZM198.963 82.536C198.963 81.8533 198.771 81.3147 198.387 80.92C198.014 80.5253 197.555 80.328 197.011 80.328C196.467 80.328 196.003 80.5253 195.619 80.92C195.246 81.304 195.059 81.8373 195.059 82.52C195.059 83.2027 195.246 83.7467 195.619 84.152C196.003 84.5467 196.467 84.744 197.011 84.744C197.555 84.744 198.014 84.5467 198.387 84.152C198.771 83.7573 198.963 83.2187 198.963 82.536ZM199.171 75.848L195.315 77.464V75.576L199.171 73.72V75.848ZM206.415 79.56C206.735 79.0693 207.135 78.6853 207.615 78.408C208.095 78.12 208.628 77.976 209.215 77.976V80.872H208.463C207.78 80.872 207.268 81.0213 206.927 81.32C206.585 81.608 206.415 82.12 206.415 82.856V87H203.679V78.072H206.415V79.56ZM211.899 77.144C211.419 77.144 211.024 77.0053 210.715 76.728C210.416 76.44 210.267 76.088 210.267 75.672C210.267 75.2453 210.416 74.8933 210.715 74.616C211.024 74.328 211.419 74.184 211.899 74.184C212.368 74.184 212.752 74.328 213.051 74.616C213.36 74.8933 213.515 75.2453 213.515 75.672C213.515 76.088 213.36 76.44 213.051 76.728C212.752 77.0053 212.368 77.144 211.899 77.144ZM213.259 78.072V87H210.523V78.072H213.259ZM219.305 87.128C218.431 87.128 217.641 86.9413 216.937 86.568C216.244 86.1947 215.695 85.6613 215.289 84.968C214.895 84.2747 214.697 83.464 214.697 82.536C214.697 81.6187 214.9 80.8133 215.305 80.12C215.711 79.416 216.265 78.8773 216.969 78.504C217.673 78.1307 218.463 77.944 219.337 77.944C220.212 77.944 221.001 78.1307 221.705 78.504C222.409 78.8773 222.964 79.416 223.369 80.12C223.775 80.8133 223.977 81.6187 223.977 82.536C223.977 83.4533 223.769 84.264 223.353 84.968C222.948 85.6613 222.388 86.1947 221.673 86.568C220.969 86.9413 220.18 87.128 219.305 87.128ZM219.305 84.76C219.828 84.76 220.271 84.568 220.633 84.184C221.007 83.8 221.193 83.2507 221.193 82.536C221.193 81.8213 221.012 81.272 220.649 80.888C220.297 80.504 219.86 80.312 219.337 80.312C218.804 80.312 218.361 80.504 218.009 80.888C217.657 81.2613 217.481 81.8107 217.481 82.536C217.481 83.2507 217.652 83.8 217.993 84.184C218.345 84.568 218.783 84.76 219.305 84.76ZM229.061 87.128C228.282 87.128 227.589 86.9947 226.981 86.728C226.373 86.4613 225.893 86.0987 225.541 85.64C225.189 85.1707 224.991 84.648 224.949 84.072H227.653C227.685 84.3813 227.829 84.632 228.085 84.824C228.341 85.016 228.655 85.112 229.029 85.112C229.37 85.112 229.631 85.048 229.813 84.92C230.005 84.7813 230.101 84.6053 230.101 84.392C230.101 84.136 229.967 83.9493 229.701 83.832C229.434 83.704 229.002 83.5653 228.405 83.416C227.765 83.2667 227.231 83.112 226.805 82.952C226.378 82.7813 226.01 82.52 225.701 82.168C225.391 81.8053 225.237 81.32 225.237 80.712C225.237 80.2 225.375 79.736 225.653 79.32C225.941 78.8933 226.357 78.5573 226.901 78.312C227.455 78.0667 228.111 77.944 228.869 77.944C229.989 77.944 230.869 78.2213 231.509 78.776C232.159 79.3307 232.533 80.0667 232.629 80.984H230.101C230.058 80.6747 229.919 80.4293 229.685 80.248C229.461 80.0667 229.162 79.976 228.789 79.976C228.469 79.976 228.223 80.04 228.053 80.168C227.882 80.2853 227.797 80.4507 227.797 80.664C227.797 80.92 227.93 81.112 228.197 81.24C228.474 81.368 228.901 81.496 229.477 81.624C230.138 81.7947 230.677 81.9653 231.093 82.136C231.509 82.296 231.871 82.5627 232.181 82.936C232.501 83.2987 232.666 83.7893 232.677 84.408C232.677 84.9307 232.527 85.4 232.229 85.816C231.941 86.2213 231.519 86.5413 230.965 86.776C230.421 87.0107 229.786 87.128 229.061 87.128Z" fill="#091929"/>
<path d="M68.0925 80.2132C68.3645 79.9972 68.4885 79.8972 68.4645 79.9132C69.2485 79.2652 69.8645 78.7332 70.3125 78.3172C70.7685 77.9012 71.1525 77.4652 71.4645 77.0092C71.7765 76.5532 71.9325 76.1092 71.9325 75.6772C71.9325 75.3492 71.8565 75.0932 71.7045 74.9092C71.5525 74.7252 71.3245 74.6332 71.0205 74.6332C70.7165 74.6332 70.4765 74.7492 70.3005 74.9812C70.1325 75.2052 70.0485 75.5252 70.0485 75.9412H68.0685C68.0845 75.2612 68.2285 74.6932 68.5005 74.2372C68.7805 73.7812 69.1445 73.4452 69.5925 73.2292C70.0485 73.0132 70.5525 72.9052 71.1045 72.9052C72.0565 72.9052 72.7725 73.1492 73.2525 73.6372C73.7405 74.1252 73.9845 74.7612 73.9845 75.5452C73.9845 76.4012 73.6925 77.1972 73.1085 77.9332C72.5245 78.6612 71.7805 79.3732 70.8765 80.0692H74.1165V81.7372H68.0925V80.2132ZM75.0919 75.5692C75.1239 74.7132 75.4039 74.0532 75.9319 73.5892C76.4599 73.1252 77.1759 72.8932 78.0799 72.8932C78.6799 72.8932 79.1919 72.9972 79.6159 73.2052C80.0479 73.4132 80.3719 73.6972 80.5879 74.0572C80.8119 74.4172 80.9239 74.8212 80.9239 75.2692C80.9239 75.7972 80.7919 76.2292 80.5279 76.5652C80.2639 76.8932 79.9559 77.1172 79.6039 77.2372V77.2852C80.0599 77.4372 80.4199 77.6892 80.6839 78.0412C80.9479 78.3932 81.0799 78.8452 81.0799 79.3972C81.0799 79.8932 80.9639 80.3332 80.7319 80.7172C80.5079 81.0932 80.1759 81.3892 79.7359 81.6052C79.3039 81.8212 78.7879 81.9292 78.1879 81.9292C77.2279 81.9292 76.4599 81.6932 75.8839 81.2212C75.3159 80.7492 75.0159 80.0372 74.9839 79.0852H76.9759C76.9839 79.4372 77.0839 79.7172 77.2759 79.9252C77.4679 80.1252 77.7479 80.2252 78.1159 80.2252C78.4279 80.2252 78.6679 80.1372 78.8359 79.9612C79.0119 79.7772 79.0999 79.5372 79.0999 79.2412C79.0999 78.8572 78.9759 78.5812 78.7279 78.4132C78.4879 78.2372 78.0999 78.1492 77.5639 78.1492H77.1799V76.4812H77.5639C77.9719 76.4812 78.2999 76.4132 78.5479 76.2772C78.8039 76.1332 78.9319 75.8812 78.9319 75.5212C78.9319 75.2332 78.8519 75.0092 78.6919 74.8492C78.5319 74.6892 78.3119 74.6092 78.0319 74.6092C77.7279 74.6092 77.4999 74.7012 77.3479 74.8852C77.2039 75.0692 77.1199 75.2972 77.0959 75.5692H75.0919ZM82.3336 80.2972V78.6412L86.1256 73.2172H88.4176V78.5212H89.4016V80.2972H88.4176V81.8572H86.3656V80.2972H82.3336ZM86.5096 75.4732L84.4936 78.5212H86.5096V75.4732Z" fill="#091929"/>
<path d="M123.93 78.8248C123.93 100.371 104.436 118.679 79.297 118.679C54.1585 118.679 34.6638 100.371 34.6638 78.8248C34.6638 57.2782 54.1585 38.9707 79.297 38.9707C104.436 38.9707 123.93 57.2782 123.93 78.8248Z" stroke="#091929" stroke-width="10"/>
<path d="M76.2436 39.0642C84.3344 38.5682 92.4062 40.053 99.6018 43.3384C106.796 46.623 112.813 51.5679 117.066 57.5989C121.316 63.6244 123.659 70.5234 123.908 77.5714C124.157 84.6186 122.304 91.6276 118.498 97.8701C114.688 104.118 109.045 109.388 102.109 113.074C95.1718 116.761 87.228 118.708 79.1177 118.678C71.0074 118.649 63.0819 116.646 56.1786 112.91C49.2772 109.175 43.6829 103.867 39.9289 97.5929" stroke="#53D3D1" stroke-width="10" stroke-linecap="round"/>
</svg>
