<svg width="351" height="168" viewBox="0 0 351 168" fill="none" xmlns="http://www.w3.org/2000/svg">
<rect x="1.6499" y="1" width="348.35" height="166" rx="11" fill="white" stroke="#F0F0F0" stroke-width="2"/>
<path d="M179.123 114.04V112.878H181.755V123H180.467V114.04H179.123ZM183.608 114.04V112.878H186.24V123H184.952V114.04H183.608ZM189.044 123.084C188.801 123.084 188.596 123 188.428 122.832C188.26 122.664 188.176 122.459 188.176 122.216C188.176 121.973 188.26 121.768 188.428 121.6C188.596 121.432 188.801 121.348 189.044 121.348C189.277 121.348 189.473 121.432 189.632 121.6C189.8 121.768 189.884 121.973 189.884 122.216C189.884 122.459 189.8 122.664 189.632 122.832C189.473 123 189.277 123.084 189.044 123.084ZM193.216 117.736C192.693 117.531 192.292 117.232 192.012 116.84C191.732 116.448 191.592 115.972 191.592 115.412C191.592 114.908 191.718 114.455 191.97 114.054C192.222 113.643 192.595 113.321 193.09 113.088C193.594 112.845 194.2 112.724 194.91 112.724C195.619 112.724 196.221 112.845 196.716 113.088C197.22 113.321 197.598 113.643 197.85 114.054C198.111 114.455 198.242 114.908 198.242 115.412C198.242 115.953 198.097 116.429 197.808 116.84C197.518 117.241 197.122 117.54 196.618 117.736C197.196 117.913 197.654 118.226 197.99 118.674C198.335 119.113 198.508 119.645 198.508 120.27C198.508 120.877 198.358 121.409 198.06 121.866C197.761 122.314 197.336 122.664 196.786 122.916C196.244 123.159 195.619 123.28 194.91 123.28C194.2 123.28 193.575 123.159 193.034 122.916C192.502 122.664 192.086 122.314 191.788 121.866C191.489 121.409 191.34 120.877 191.34 120.27C191.34 119.645 191.508 119.108 191.844 118.66C192.18 118.212 192.637 117.904 193.216 117.736ZM197.01 115.566C197.01 114.997 196.823 114.558 196.45 114.25C196.076 113.942 195.563 113.788 194.91 113.788C194.266 113.788 193.757 113.942 193.384 114.25C193.01 114.558 192.824 115.001 192.824 115.58C192.824 116.103 193.015 116.523 193.398 116.84C193.79 117.157 194.294 117.316 194.91 117.316C195.535 117.316 196.039 117.157 196.422 116.84C196.814 116.513 197.01 116.089 197.01 115.566ZM194.91 118.296C194.219 118.296 193.654 118.459 193.216 118.786C192.777 119.103 192.558 119.584 192.558 120.228C192.558 120.825 192.768 121.306 193.188 121.67C193.617 122.034 194.191 122.216 194.91 122.216C195.628 122.216 196.198 122.034 196.618 121.67C197.038 121.306 197.248 120.825 197.248 120.228C197.248 119.603 197.033 119.127 196.604 118.8C196.174 118.464 195.61 118.296 194.91 118.296ZM199.92 115.16C199.92 114.525 200.111 114.021 200.494 113.648C200.876 113.265 201.366 113.074 201.964 113.074C202.561 113.074 203.051 113.265 203.434 113.648C203.816 114.021 204.008 114.525 204.008 115.16C204.008 115.804 203.816 116.317 203.434 116.7C203.051 117.073 202.561 117.26 201.964 117.26C201.366 117.26 200.876 117.073 200.494 116.7C200.111 116.317 199.92 115.804 199.92 115.16ZM208.096 113.228L202.426 123H201.166L206.836 113.228H208.096ZM201.964 113.858C201.646 113.858 201.394 113.97 201.208 114.194C201.03 114.409 200.942 114.731 200.942 115.16C200.942 115.589 201.03 115.916 201.208 116.14C201.394 116.364 201.646 116.476 201.964 116.476C202.281 116.476 202.533 116.364 202.72 116.14C202.906 115.907 203 115.58 203 115.16C203 114.731 202.906 114.409 202.72 114.194C202.533 113.97 202.281 113.858 201.964 113.858ZM205.282 121.068C205.282 120.424 205.473 119.915 205.856 119.542C206.238 119.159 206.728 118.968 207.326 118.968C207.923 118.968 208.408 119.159 208.782 119.542C209.164 119.915 209.356 120.424 209.356 121.068C209.356 121.703 209.164 122.211 208.782 122.594C208.408 122.977 207.923 123.168 207.326 123.168C206.728 123.168 206.238 122.981 205.856 122.608C205.473 122.225 205.282 121.712 205.282 121.068ZM207.312 119.766C206.994 119.766 206.742 119.878 206.556 120.102C206.369 120.317 206.276 120.639 206.276 121.068C206.276 121.488 206.369 121.81 206.556 122.034C206.742 122.249 206.994 122.356 207.312 122.356C207.629 122.356 207.881 122.249 208.068 122.034C208.254 121.81 208.348 121.488 208.348 121.068C208.348 120.639 208.254 120.317 208.068 120.102C207.881 119.878 207.629 119.766 207.312 119.766Z" fill="#ED8975"/>
<path fill-rule="evenodd" clip-rule="evenodd" d="M226.459 119.152C226.766 119.469 226.541 120 226.099 120H220.714C220.272 120 220.047 119.469 220.355 119.152L223.047 116.371C223.244 116.168 223.569 116.168 223.766 116.371L226.459 119.152Z" fill="#ED8975"/>
<path d="M309.017 24.7333C307.876 24.7333 306.951 23.8976 306.951 22.8667C306.951 21.8357 307.876 21 309.017 21C310.157 21 311.082 21.8357 311.082 22.8667C311.082 23.8976 310.157 24.7333 309.017 24.7333Z" fill="#ED8975"/>
<path d="M315.804 24.7333C314.663 24.7333 313.738 23.8976 313.738 22.8667C313.738 21.8357 314.663 21 315.804 21C316.944 21 317.869 21.8357 317.869 22.8667C317.869 23.8976 316.944 24.7333 315.804 24.7333Z" fill="#ED8975"/>
<path d="M322.59 24.7333C321.45 24.7333 320.525 23.8976 320.525 22.8667C320.525 21.8357 321.45 21 322.59 21C323.731 21 324.656 21.8357 324.656 22.8667C324.656 23.8976 323.731 24.7333 322.59 24.7333Z" fill="#ED8975"/>
<path d="M190.04 62H187.304L182.728 55.072V62H179.992V50.768H182.728L187.304 57.728V50.768H190.04V62ZM200.839 53.072V62H198.103V60.784C197.826 61.1787 197.447 61.4987 196.967 61.744C196.498 61.9787 195.975 62.096 195.399 62.096C194.717 62.096 194.114 61.9467 193.591 61.648C193.069 61.3387 192.663 60.896 192.375 60.32C192.087 59.744 191.943 59.0667 191.943 58.288V53.072H194.663V57.92C194.663 58.5173 194.818 58.9813 195.127 59.312C195.437 59.6427 195.853 59.808 196.375 59.808C196.909 59.808 197.33 59.6427 197.639 59.312C197.949 58.9813 198.103 58.5173 198.103 57.92V53.072H200.839ZM198.295 50.848L194.439 52.464V50.576L198.295 48.72V50.848ZM214.197 52.976C215.306 52.976 216.186 53.312 216.837 53.984C217.498 54.656 217.829 55.5893 217.829 56.784V62H215.109V57.152C215.109 56.576 214.954 56.1333 214.645 55.824C214.346 55.504 213.93 55.344 213.397 55.344C212.863 55.344 212.442 55.504 212.133 55.824C211.834 56.1333 211.685 56.576 211.685 57.152V62H208.965V57.152C208.965 56.576 208.81 56.1333 208.501 55.824C208.202 55.504 207.786 55.344 207.253 55.344C206.719 55.344 206.298 55.504 205.989 55.824C205.69 56.1333 205.541 56.576 205.541 57.152V62H202.805V53.072H205.541V54.192C205.818 53.8187 206.181 53.5253 206.629 53.312C207.077 53.088 207.583 52.976 208.149 52.976C208.821 52.976 209.418 53.12 209.941 53.408C210.474 53.696 210.89 54.1067 211.189 54.64C211.498 54.1493 211.919 53.7493 212.453 53.44C212.986 53.1307 213.567 52.976 214.197 52.976ZM228.158 57.392C228.158 57.648 228.142 57.9147 228.11 58.192H221.918C221.961 58.7467 222.137 59.1733 222.446 59.472C222.766 59.76 223.155 59.904 223.614 59.904C224.297 59.904 224.771 59.616 225.038 59.04H227.95C227.801 59.6267 227.529 60.1547 227.134 60.624C226.75 61.0933 226.265 61.4613 225.678 61.728C225.091 61.9947 224.435 62.128 223.71 62.128C222.835 62.128 222.057 61.9413 221.374 61.568C220.691 61.1947 220.158 60.6613 219.774 59.968C219.39 59.2747 219.198 58.464 219.198 57.536C219.198 56.608 219.385 55.7973 219.758 55.104C220.142 54.4107 220.675 53.8773 221.358 53.504C222.041 53.1307 222.825 52.944 223.71 52.944C224.574 52.944 225.342 53.1253 226.014 53.488C226.686 53.8507 227.209 54.368 227.582 55.04C227.966 55.712 228.158 56.496 228.158 57.392ZM225.358 56.672C225.358 56.2027 225.198 55.8293 224.878 55.552C224.558 55.2747 224.158 55.136 223.678 55.136C223.219 55.136 222.83 55.2693 222.51 55.536C222.201 55.8027 222.009 56.1813 221.934 56.672H225.358ZM232.337 54.56C232.657 54.0693 233.057 53.6853 233.537 53.408C234.017 53.12 234.551 52.976 235.137 52.976V55.872H234.385C233.703 55.872 233.191 56.0213 232.849 56.32C232.508 56.608 232.337 57.12 232.337 57.856V62H229.601V53.072H232.337V54.56ZM240.509 62.128C239.634 62.128 238.845 61.9413 238.141 61.568C237.448 61.1947 236.898 60.6613 236.493 59.968C236.098 59.2747 235.901 58.464 235.901 57.536C235.901 56.6187 236.104 55.8133 236.509 55.12C236.914 54.416 237.469 53.8773 238.173 53.504C238.877 53.1307 239.666 52.944 240.541 52.944C241.416 52.944 242.205 53.1307 242.909 53.504C243.613 53.8773 244.168 54.416 244.573 55.12C244.978 55.8133 245.181 56.6187 245.181 57.536C245.181 58.4533 244.973 59.264 244.557 59.968C244.152 60.6613 243.592 61.1947 242.877 61.568C242.173 61.9413 241.384 62.128 240.509 62.128ZM240.509 59.76C241.032 59.76 241.474 59.568 241.837 59.184C242.21 58.8 242.397 58.2507 242.397 57.536C242.397 56.8213 242.216 56.272 241.853 55.888C241.501 55.504 241.064 55.312 240.541 55.312C240.008 55.312 239.565 55.504 239.213 55.888C238.861 56.2613 238.685 56.8107 238.685 57.536C238.685 58.2507 238.856 58.8 239.197 59.184C239.549 59.568 239.986 59.76 240.509 59.76ZM249.479 57.52C249.479 56.6027 249.65 55.7973 249.991 55.104C250.343 54.4107 250.818 53.8773 251.415 53.504C252.013 53.1307 252.679 52.944 253.415 52.944C254.002 52.944 254.535 53.0667 255.015 53.312C255.506 53.5573 255.89 53.888 256.167 54.304V50.16H258.903V62H256.167V60.72C255.911 61.1467 255.543 61.488 255.063 61.744C254.594 62 254.045 62.128 253.415 62.128C252.679 62.128 252.013 61.9413 251.415 61.568C250.818 61.184 250.343 60.6453 249.991 59.952C249.65 59.248 249.479 58.4373 249.479 57.52ZM256.167 57.536C256.167 56.8533 255.975 56.3147 255.591 55.92C255.218 55.5253 254.759 55.328 254.215 55.328C253.671 55.328 253.207 55.5253 252.823 55.92C252.45 56.304 252.263 56.8373 252.263 57.52C252.263 58.2027 252.45 58.7467 252.823 59.152C253.207 59.5467 253.671 59.744 254.215 59.744C254.759 59.744 255.218 59.5467 255.591 59.152C255.975 58.7573 256.167 58.2187 256.167 57.536ZM269.299 57.392C269.299 57.648 269.283 57.9147 269.251 58.192H263.059C263.101 58.7467 263.277 59.1733 263.587 59.472C263.907 59.76 264.296 59.904 264.755 59.904C265.437 59.904 265.912 59.616 266.179 59.04H269.091C268.941 59.6267 268.669 60.1547 268.275 60.624C267.891 61.0933 267.405 61.4613 266.819 61.728C266.232 61.9947 265.576 62.128 264.851 62.128C263.976 62.128 263.197 61.9413 262.515 61.568C261.832 61.1947 261.299 60.6613 260.915 59.968C260.531 59.2747 260.339 58.464 260.339 57.536C260.339 56.608 260.525 55.7973 260.899 55.104C261.283 54.4107 261.816 53.8773 262.499 53.504C263.181 53.1307 263.965 52.944 264.851 52.944C265.715 52.944 266.483 53.1253 267.155 53.488C267.827 53.8507 268.349 54.368 268.723 55.04C269.107 55.712 269.299 56.496 269.299 57.392ZM266.499 56.672C266.499 56.2027 266.339 55.8293 266.019 55.552C265.699 55.2747 265.299 55.136 264.819 55.136C264.36 55.136 263.971 55.2693 263.651 55.536C263.341 55.8027 263.149 56.1813 263.075 56.672H266.499ZM184.968 83.68V86H183.576C182.584 86 181.811 85.76 181.256 85.28C180.701 84.7893 180.424 83.9947 180.424 82.896V79.344H179.336V77.072H180.424V74.896H183.16V77.072H184.952V79.344H183.16V82.928C183.16 83.1947 183.224 83.3867 183.352 83.504C183.48 83.6213 183.693 83.68 183.992 83.68H184.968ZM189.228 78.56C189.548 78.0693 189.948 77.6853 190.428 77.408C190.908 77.12 191.441 76.976 192.028 76.976V79.872H191.276C190.593 79.872 190.081 80.0213 189.74 80.32C189.399 80.608 189.228 81.12 189.228 81.856V86H186.492V77.072H189.228V78.56ZM192.792 81.52C192.792 80.6027 192.962 79.7973 193.304 79.104C193.656 78.4107 194.13 77.8773 194.728 77.504C195.325 77.1307 195.992 76.944 196.728 76.944C197.357 76.944 197.906 77.072 198.376 77.328C198.856 77.584 199.224 77.92 199.48 78.336V77.072H202.216V86H199.48V84.736C199.213 85.152 198.84 85.488 198.36 85.744C197.89 86 197.341 86.128 196.712 86.128C195.986 86.128 195.325 85.9413 194.728 85.568C194.13 85.184 193.656 84.6453 193.304 83.952C192.962 83.248 192.792 82.4373 192.792 81.52ZM199.48 81.536C199.48 80.8533 199.288 80.3147 198.904 79.92C198.53 79.5253 198.072 79.328 197.528 79.328C196.984 79.328 196.52 79.5253 196.136 79.92C195.762 80.304 195.576 80.8373 195.576 81.52C195.576 82.2027 195.762 82.7467 196.136 83.152C196.52 83.5467 196.984 83.744 197.528 83.744C198.072 83.744 198.53 83.5467 198.904 83.152C199.288 82.7573 199.48 82.2187 199.48 81.536ZM209.635 76.976C210.68 76.976 211.512 77.3173 212.131 78C212.76 78.672 213.075 79.6 213.075 80.784V86H210.355V81.152C210.355 80.5547 210.2 80.0907 209.891 79.76C209.582 79.4293 209.166 79.264 208.643 79.264C208.12 79.264 207.704 79.4293 207.395 79.76C207.086 80.0907 206.931 80.5547 206.931 81.152V86H204.195V77.072H206.931V78.256C207.208 77.8613 207.582 77.552 208.051 77.328C208.52 77.0933 209.048 76.976 209.635 76.976ZM218.608 86.128C217.83 86.128 217.136 85.9947 216.528 85.728C215.92 85.4613 215.44 85.0987 215.088 84.64C214.736 84.1707 214.539 83.648 214.496 83.072H217.2C217.232 83.3813 217.376 83.632 217.632 83.824C217.888 84.016 218.203 84.112 218.576 84.112C218.918 84.112 219.179 84.048 219.36 83.92C219.552 83.7813 219.648 83.6053 219.648 83.392C219.648 83.136 219.515 82.9493 219.248 82.832C218.982 82.704 218.55 82.5653 217.952 82.416C217.312 82.2667 216.779 82.112 216.352 81.952C215.926 81.7813 215.558 81.52 215.248 81.168C214.939 80.8053 214.784 80.32 214.784 79.712C214.784 79.2 214.923 78.736 215.2 78.32C215.488 77.8933 215.904 77.5573 216.448 77.312C217.003 77.0667 217.659 76.944 218.416 76.944C219.536 76.944 220.416 77.2213 221.056 77.776C221.707 78.3307 222.08 79.0667 222.176 79.984H219.648C219.606 79.6747 219.467 79.4293 219.232 79.248C219.008 79.0667 218.71 78.976 218.336 78.976C218.016 78.976 217.771 79.04 217.6 79.168C217.43 79.2853 217.344 79.4507 217.344 79.664C217.344 79.92 217.478 80.112 217.744 80.24C218.022 80.368 218.448 80.496 219.024 80.624C219.686 80.7947 220.224 80.9653 220.64 81.136C221.056 81.296 221.419 81.5627 221.728 81.936C222.048 82.2987 222.214 82.7893 222.224 83.408C222.224 83.9307 222.075 84.4 221.776 84.816C221.488 85.2213 221.067 85.5413 220.512 85.776C219.968 86.0107 219.334 86.128 218.608 86.128ZM223.354 81.52C223.354 80.6027 223.525 79.7973 223.866 79.104C224.218 78.4107 224.693 77.8773 225.29 77.504C225.888 77.1307 226.554 76.944 227.29 76.944C227.92 76.944 228.469 77.072 228.938 77.328C229.418 77.584 229.786 77.92 230.042 78.336V77.072H232.778V86H230.042V84.736C229.776 85.152 229.402 85.488 228.922 85.744C228.453 86 227.904 86.128 227.274 86.128C226.549 86.128 225.888 85.9413 225.29 85.568C224.693 85.184 224.218 84.6453 223.866 83.952C223.525 83.248 223.354 82.4373 223.354 81.52ZM230.042 81.536C230.042 80.8533 229.85 80.3147 229.466 79.92C229.093 79.5253 228.634 79.328 228.09 79.328C227.546 79.328 227.082 79.5253 226.698 79.92C226.325 80.304 226.138 80.8373 226.138 81.52C226.138 82.2027 226.325 82.7467 226.698 83.152C227.082 83.5467 227.546 83.744 228.09 83.744C228.634 83.744 229.093 83.5467 229.466 83.152C229.85 82.7573 230.042 82.2187 230.042 81.536ZM238.646 83.792C239.35 83.792 239.824 83.4507 240.07 82.768H242.982C242.779 83.6747 242.374 84.416 241.766 84.992C241.158 85.568 240.4 85.9253 239.494 86.064V86.656C240.048 86.656 240.534 86.8053 240.95 87.104C241.366 87.4133 241.574 87.872 241.574 88.48C241.574 89.088 241.355 89.5467 240.918 89.856C240.48 90.176 239.958 90.336 239.35 90.336H236.886V88.832H238.982C239.195 88.832 239.355 88.8 239.462 88.736C239.568 88.672 239.622 88.5653 239.622 88.416C239.622 88.2667 239.568 88.16 239.462 88.096C239.355 88.0427 239.195 88.016 238.982 88.016H237.846V86.064C236.747 85.8933 235.867 85.408 235.206 84.608C234.544 83.7973 234.214 82.7733 234.214 81.536C234.214 80.608 234.4 79.7973 234.774 79.104C235.158 78.4107 235.686 77.8773 236.358 77.504C237.04 77.1307 237.819 76.944 238.694 76.944C239.814 76.944 240.747 77.2373 241.494 77.824C242.251 78.4107 242.747 79.2373 242.982 80.304H240.07C239.824 79.6213 239.35 79.28 238.646 79.28C238.144 79.28 237.744 79.4773 237.446 79.872C237.147 80.256 236.998 80.8107 236.998 81.536C236.998 82.2613 237.147 82.8213 237.446 83.216C237.744 83.6 238.144 83.792 238.646 83.792ZM248.509 86.128C247.634 86.128 246.845 85.9413 246.141 85.568C245.448 85.1947 244.898 84.6613 244.493 83.968C244.098 83.2747 243.901 82.464 243.901 81.536C243.901 80.6187 244.104 79.8133 244.509 79.12C244.914 78.416 245.469 77.8773 246.173 77.504C246.877 77.1307 247.666 76.944 248.541 76.944C249.416 76.944 250.205 77.1307 250.909 77.504C251.613 77.8773 252.168 78.416 252.573 79.12C252.978 79.8133 253.181 80.6187 253.181 81.536C253.181 82.4533 252.973 83.264 252.557 83.968C252.152 84.6613 251.592 85.1947 250.877 85.568C250.173 85.9413 249.384 86.128 248.509 86.128ZM248.509 83.76C249.032 83.76 249.474 83.568 249.837 83.184C250.21 82.8 250.397 82.2507 250.397 81.536C250.397 80.8213 250.216 80.272 249.853 79.888C249.501 79.504 249.064 79.312 248.541 79.312C248.008 79.312 247.565 79.504 247.213 79.888C246.861 80.2613 246.685 80.8107 246.685 81.536C246.685 82.2507 246.856 82.8 247.197 83.184C247.549 83.568 247.986 83.76 248.509 83.76ZM245.549 76.256C245.805 74.6773 246.541 73.888 247.757 73.888C247.992 73.888 248.194 73.9253 248.365 74C248.546 74.064 248.765 74.1653 249.021 74.304C249.213 74.4107 249.368 74.4907 249.485 74.544C249.602 74.5867 249.725 74.608 249.853 74.608C250.248 74.608 250.477 74.368 250.541 73.888H251.949C251.693 75.4667 250.957 76.256 249.741 76.256C249.506 76.256 249.298 76.224 249.117 76.16C248.946 76.0853 248.733 75.9787 248.477 75.84C248.285 75.7333 248.13 75.6587 248.013 75.616C247.896 75.5627 247.773 75.536 247.645 75.536C247.25 75.536 247.016 75.776 246.941 76.256H245.549ZM263.049 81.392C263.049 81.648 263.033 81.9147 263.001 82.192H256.809C256.851 82.7467 257.027 83.1733 257.337 83.472C257.657 83.76 258.046 83.904 258.505 83.904C259.187 83.904 259.662 83.616 259.929 83.04H262.841C262.691 83.6267 262.419 84.1547 262.025 84.624C261.641 85.0933 261.155 85.4613 260.569 85.728C259.982 85.9947 259.326 86.128 258.601 86.128C257.726 86.128 256.947 85.9413 256.265 85.568C255.582 85.1947 255.049 84.6613 254.665 83.968C254.281 83.2747 254.089 82.464 254.089 81.536C254.089 80.608 254.275 79.7973 254.649 79.104C255.033 78.4107 255.566 77.8773 256.249 77.504C256.931 77.1307 257.715 76.944 258.601 76.944C259.465 76.944 260.233 77.1253 260.905 77.488C261.577 77.8507 262.099 78.368 262.473 79.04C262.857 79.712 263.049 80.496 263.049 81.392ZM260.249 80.672C260.249 80.2027 260.089 79.8293 259.769 79.552C259.449 79.2747 259.049 79.136 258.569 79.136C258.11 79.136 257.721 79.2693 257.401 79.536C257.091 79.8027 256.899 80.1813 256.825 80.672H260.249ZM268.124 86.128C267.345 86.128 266.652 85.9947 266.044 85.728C265.436 85.4613 264.956 85.0987 264.604 84.64C264.252 84.1707 264.055 83.648 264.012 83.072H266.716C266.748 83.3813 266.892 83.632 267.148 83.824C267.404 84.016 267.719 84.112 268.092 84.112C268.433 84.112 268.695 84.048 268.876 83.92C269.068 83.7813 269.164 83.6053 269.164 83.392C269.164 83.136 269.031 82.9493 268.764 82.832C268.497 82.704 268.065 82.5653 267.468 82.416C266.828 82.2667 266.295 82.112 265.868 81.952C265.441 81.7813 265.073 81.52 264.764 81.168C264.455 80.8053 264.3 80.32 264.3 79.712C264.3 79.2 264.439 78.736 264.716 78.32C265.004 77.8933 265.42 77.5573 265.964 77.312C266.519 77.0667 267.175 76.944 267.932 76.944C269.052 76.944 269.932 77.2213 270.572 77.776C271.223 78.3307 271.596 79.0667 271.692 79.984H269.164C269.121 79.6747 268.983 79.4293 268.748 79.248C268.524 79.0667 268.225 78.976 267.852 78.976C267.532 78.976 267.287 79.04 267.116 79.168C266.945 79.2853 266.86 79.4507 266.86 79.664C266.86 79.92 266.993 80.112 267.26 80.24C267.537 80.368 267.964 80.496 268.54 80.624C269.201 80.7947 269.74 80.9653 270.156 81.136C270.572 81.296 270.935 81.5627 271.244 81.936C271.564 82.2987 271.729 82.7893 271.74 83.408C271.74 83.9307 271.591 84.4 271.292 84.816C271.004 85.2213 270.583 85.5413 270.028 85.776C269.484 86.0107 268.849 86.128 268.124 86.128Z" fill="#091929"/>
<path d="M69.1407 74.9324C69.1727 74.0764 69.4527 73.4164 69.9807 72.9524C70.5087 72.4884 71.2247 72.2564 72.1287 72.2564C72.7287 72.2564 73.2407 72.3604 73.6647 72.5684C74.0967 72.7764 74.4207 73.0604 74.6367 73.4204C74.8607 73.7804 74.9727 74.1844 74.9727 74.6324C74.9727 75.1604 74.8407 75.5924 74.5767 75.9284C74.3127 76.2564 74.0047 76.4804 73.6527 76.6004V76.6484C74.1087 76.8004 74.4687 77.0524 74.7327 77.4044C74.9967 77.7564 75.1287 78.2084 75.1287 78.7604C75.1287 79.2564 75.0127 79.6964 74.7807 80.0804C74.5567 80.4564 74.2247 80.7524 73.7847 80.9684C73.3527 81.1844 72.8367 81.2924 72.2367 81.2924C71.2767 81.2924 70.5087 81.0564 69.9327 80.5844C69.3647 80.1124 69.0647 79.4004 69.0327 78.4484H71.0247C71.0327 78.8004 71.1327 79.0804 71.3247 79.2884C71.5167 79.4884 71.7967 79.5884 72.1647 79.5884C72.4767 79.5884 72.7167 79.5004 72.8847 79.3244C73.0607 79.1404 73.1487 78.9004 73.1487 78.6044C73.1487 78.2204 73.0247 77.9444 72.7767 77.7764C72.5367 77.6004 72.1487 77.5124 71.6127 77.5124H71.2287V75.8444H71.6127C72.0207 75.8444 72.3487 75.7764 72.5967 75.6404C72.8527 75.4964 72.9807 75.2444 72.9807 74.8844C72.9807 74.5964 72.9007 74.3724 72.7407 74.2124C72.5807 74.0524 72.3607 73.9724 72.0807 73.9724C71.7767 73.9724 71.5487 74.0644 71.3967 74.2484C71.2527 74.4324 71.1687 74.6604 71.1447 74.9324H69.1407ZM80.6664 74.8244C80.6024 74.5284 80.4904 74.3084 80.3304 74.1644C80.1704 74.0124 79.9424 73.9364 79.6464 73.9364C79.1904 73.9364 78.8624 74.1364 78.6624 74.5364C78.4624 74.9284 78.3584 75.5524 78.3504 76.4084C78.5264 76.1284 78.7784 75.9084 79.1064 75.7484C79.4424 75.5884 79.8104 75.5084 80.2104 75.5084C80.9944 75.5084 81.6224 75.7564 82.0944 76.2524C82.5744 76.7484 82.8144 77.4404 82.8144 78.3284C82.8144 78.9124 82.6944 79.4244 82.4544 79.8644C82.2224 80.3044 81.8784 80.6484 81.4224 80.8964C80.9744 81.1444 80.4424 81.2684 79.8264 81.2684C78.5944 81.2684 77.7384 80.8844 77.2584 80.1164C76.7784 79.3404 76.5384 78.2284 76.5384 76.7804C76.5384 75.2604 76.7904 74.1324 77.2944 73.3964C77.8064 72.6524 78.6224 72.2804 79.7424 72.2804C80.3424 72.2804 80.8464 72.4004 81.2544 72.6404C81.6704 72.8724 81.9824 73.1804 82.1904 73.5644C82.4064 73.9484 82.5344 74.3684 82.5744 74.8244H80.6664ZM79.7184 77.1284C79.3744 77.1284 79.0864 77.2324 78.8544 77.4404C78.6304 77.6404 78.5184 77.9284 78.5184 78.3044C78.5184 78.6884 78.6224 78.9884 78.8304 79.2044C79.0464 79.4204 79.3504 79.5284 79.7424 79.5284C80.0944 79.5284 80.3704 79.4244 80.5704 79.2164C80.7784 79.0004 80.8824 78.7084 80.8824 78.3404C80.8824 77.9644 80.7824 77.6684 80.5824 77.4524C80.3824 77.2364 80.0944 77.1284 79.7184 77.1284ZM88.307 74.8244C88.243 74.5284 88.131 74.3084 87.971 74.1644C87.811 74.0124 87.583 73.9364 87.287 73.9364C86.831 73.9364 86.503 74.1364 86.303 74.5364C86.103 74.9284 85.999 75.5524 85.991 76.4084C86.167 76.1284 86.419 75.9084 86.747 75.7484C87.083 75.5884 87.451 75.5084 87.851 75.5084C88.635 75.5084 89.263 75.7564 89.735 76.2524C90.215 76.7484 90.455 77.4404 90.455 78.3284C90.455 78.9124 90.335 79.4244 90.095 79.8644C89.863 80.3044 89.519 80.6484 89.063 80.8964C88.615 81.1444 88.083 81.2684 87.467 81.2684C86.235 81.2684 85.379 80.8844 84.899 80.1164C84.419 79.3404 84.179 78.2284 84.179 76.7804C84.179 75.2604 84.431 74.1324 84.935 73.3964C85.447 72.6524 86.263 72.2804 87.383 72.2804C87.983 72.2804 88.487 72.4004 88.895 72.6404C89.311 72.8724 89.623 73.1804 89.831 73.5644C90.047 73.9484 90.175 74.3684 90.215 74.8244H88.307ZM87.359 77.1284C87.015 77.1284 86.727 77.2324 86.495 77.4404C86.271 77.6404 86.159 77.9284 86.159 78.3044C86.159 78.6884 86.263 78.9884 86.471 79.2044C86.687 79.4204 86.991 79.5284 87.383 79.5284C87.735 79.5284 88.011 79.4244 88.211 79.2164C88.419 79.0004 88.523 78.7084 88.523 78.3404C88.523 77.9644 88.423 77.6684 88.223 77.4524C88.023 77.2364 87.735 77.1284 87.359 77.1284Z" fill="#091929"/>
<path d="M125.402 78.271C125.402 100.023 105.724 118.497 80.358 118.497C54.9924 118.497 35.3137 100.023 35.3137 78.271C35.3137 56.5192 54.9924 38.0454 80.358 38.0454C105.724 38.0454 125.402 56.5192 125.402 78.271Z" stroke="#091929" stroke-width="10"/>
<path d="M77.2768 38.1398C87.8015 37.4945 98.205 40.1735 106.706 45.6522C115.2 51.1263 121.22 59.0169 123.877 67.8992C126.531 76.7679 125.708 86.194 121.514 94.6116C117.311 103.045 109.942 110.014 100.55 114.224C91.1529 118.436 80.3918 119.584 70.1263 117.444C59.8622 115.303 50.8353 110.032 44.5288 102.639C38.2329 95.2594 35.0256 86.2194 35.3341 77.0629C35.6426 67.9046 39.4551 59.0415 46.2536 52.0033" stroke="#53D3D1" stroke-width="10" stroke-linecap="round"/>
</svg>
