<svg width="350" height="168" viewBox="0 0 350 168" fill="none" xmlns="http://www.w3.org/2000/svg">
<rect x="1.93164" y="1" width="346.137" height="166" rx="11" fill="white" stroke="#F0F0F0" stroke-width="2"/>
<path d="M172.69 113.32V112.324H174.946V121H173.842V113.32H172.69ZM176.533 113.32V112.324H178.789V121H177.685V113.32H176.533ZM181.193 121.072C180.985 121.072 180.809 121 180.665 120.856C180.521 120.712 180.449 120.536 180.449 120.328C180.449 120.12 180.521 119.944 180.665 119.8C180.809 119.656 180.985 119.584 181.193 119.584C181.393 119.584 181.561 119.656 181.697 119.8C181.841 119.944 181.913 120.12 181.913 120.328C181.913 120.536 181.841 120.712 181.697 120.856C181.561 121 181.393 121.072 181.193 121.072ZM184.769 116.488C184.321 116.312 183.977 116.056 183.737 115.72C183.497 115.384 183.377 114.976 183.377 114.496C183.377 114.064 183.485 113.676 183.701 113.332C183.917 112.98 184.237 112.704 184.661 112.504C185.093 112.296 185.613 112.192 186.221 112.192C186.829 112.192 187.345 112.296 187.769 112.504C188.201 112.704 188.525 112.98 188.741 113.332C188.965 113.676 189.077 114.064 189.077 114.496C189.077 114.96 188.953 115.368 188.705 115.72C188.457 116.064 188.117 116.32 187.685 116.488C188.181 116.64 188.573 116.908 188.861 117.292C189.157 117.668 189.305 118.124 189.305 118.66C189.305 119.18 189.177 119.636 188.921 120.028C188.665 120.412 188.301 120.712 187.829 120.928C187.365 121.136 186.829 121.24 186.221 121.24C185.613 121.24 185.077 121.136 184.613 120.928C184.157 120.712 183.801 120.412 183.545 120.028C183.289 119.636 183.161 119.18 183.161 118.66C183.161 118.124 183.305 117.664 183.593 117.28C183.881 116.896 184.273 116.632 184.769 116.488ZM188.021 114.628C188.021 114.14 187.861 113.764 187.541 113.5C187.221 113.236 186.781 113.104 186.221 113.104C185.669 113.104 185.233 113.236 184.913 113.5C184.593 113.764 184.433 114.144 184.433 114.64C184.433 115.088 184.597 115.448 184.925 115.72C185.261 115.992 185.693 116.128 186.221 116.128C186.757 116.128 187.189 115.992 187.517 115.72C187.853 115.44 188.021 115.076 188.021 114.628ZM186.221 116.968C185.629 116.968 185.145 117.108 184.769 117.388C184.393 117.66 184.205 118.072 184.205 118.624C184.205 119.136 184.385 119.548 184.745 119.86C185.113 120.172 185.605 120.328 186.221 120.328C186.837 120.328 187.325 120.172 187.685 119.86C188.045 119.548 188.225 119.136 188.225 118.624C188.225 118.088 188.041 117.68 187.673 117.4C187.305 117.112 186.821 116.968 186.221 116.968ZM190.515 114.28C190.515 113.736 190.679 113.304 191.007 112.984C191.335 112.656 191.755 112.492 192.267 112.492C192.779 112.492 193.199 112.656 193.527 112.984C193.855 113.304 194.019 113.736 194.019 114.28C194.019 114.832 193.855 115.272 193.527 115.6C193.199 115.92 192.779 116.08 192.267 116.08C191.755 116.08 191.335 115.92 191.007 115.6C190.679 115.272 190.515 114.832 190.515 114.28ZM197.523 112.624L192.663 121H191.583L196.443 112.624H197.523ZM192.267 113.164C191.995 113.164 191.779 113.26 191.619 113.452C191.467 113.636 191.391 113.912 191.391 114.28C191.391 114.648 191.467 114.928 191.619 115.12C191.779 115.312 191.995 115.408 192.267 115.408C192.539 115.408 192.755 115.312 192.915 115.12C193.075 114.92 193.155 114.64 193.155 114.28C193.155 113.912 193.075 113.636 192.915 113.452C192.755 113.26 192.539 113.164 192.267 113.164ZM195.111 119.344C195.111 118.792 195.275 118.356 195.603 118.036C195.931 117.708 196.351 117.544 196.863 117.544C197.375 117.544 197.791 117.708 198.111 118.036C198.439 118.356 198.603 118.792 198.603 119.344C198.603 119.888 198.439 120.324 198.111 120.652C197.791 120.98 197.375 121.144 196.863 121.144C196.351 121.144 195.931 120.984 195.603 120.664C195.275 120.336 195.111 119.896 195.111 119.344ZM196.851 118.228C196.579 118.228 196.363 118.324 196.203 118.516C196.043 118.7 195.963 118.976 195.963 119.344C195.963 119.704 196.043 119.98 196.203 120.172C196.363 120.356 196.579 120.448 196.851 120.448C197.123 120.448 197.339 120.356 197.499 120.172C197.659 119.98 197.739 119.704 197.739 119.344C197.739 118.976 197.659 118.7 197.499 118.516C197.339 118.324 197.123 118.228 196.851 118.228Z" fill="#ED8975"/>
<path fill-rule="evenodd" clip-rule="evenodd" d="M209.035 118.152C209.342 118.469 209.117 119 208.676 119H203.29C202.849 119 202.624 118.469 202.931 118.152L205.624 115.371C205.82 115.168 206.146 115.168 206.342 115.371L209.035 118.152Z" fill="#ED8975"/>
<path d="M183.274 63H180.538L175.962 56.072V63H173.226V51.768H175.962L180.538 58.728V51.768H183.274V63ZM194.073 54.072V63H191.337V61.784C191.06 62.1787 190.681 62.4987 190.201 62.744C189.732 62.9787 189.209 63.096 188.633 63.096C187.95 63.096 187.348 62.9467 186.825 62.648C186.302 62.3387 185.897 61.896 185.609 61.32C185.321 60.744 185.177 60.0667 185.177 59.288V54.072H187.897V58.92C187.897 59.5173 188.052 59.9813 188.361 60.312C188.67 60.6427 189.086 60.808 189.609 60.808C190.142 60.808 190.564 60.6427 190.873 60.312C191.182 59.9813 191.337 59.5173 191.337 58.92V54.072H194.073ZM191.529 51.848L187.673 53.464V51.576L191.529 49.72V51.848ZM207.43 53.976C208.539 53.976 209.419 54.312 210.07 54.984C210.731 55.656 211.062 56.5893 211.062 57.784V63H208.342V58.152C208.342 57.576 208.187 57.1333 207.878 56.824C207.579 56.504 207.163 56.344 206.63 56.344C206.097 56.344 205.675 56.504 205.366 56.824C205.067 57.1333 204.918 57.576 204.918 58.152V63H202.198V58.152C202.198 57.576 202.043 57.1333 201.734 56.824C201.435 56.504 201.019 56.344 200.486 56.344C199.953 56.344 199.531 56.504 199.222 56.824C198.923 57.1333 198.774 57.576 198.774 58.152V63H196.038V54.072H198.774V55.192C199.051 54.8187 199.414 54.5253 199.862 54.312C200.31 54.088 200.817 53.976 201.382 53.976C202.054 53.976 202.651 54.12 203.174 54.408C203.707 54.696 204.123 55.1067 204.422 55.64C204.731 55.1493 205.153 54.7493 205.686 54.44C206.219 54.1307 206.801 53.976 207.43 53.976ZM221.392 58.392C221.392 58.648 221.376 58.9147 221.344 59.192H215.152C215.194 59.7467 215.37 60.1733 215.68 60.472C216 60.76 216.389 60.904 216.848 60.904C217.53 60.904 218.005 60.616 218.272 60.04H221.184C221.034 60.6267 220.762 61.1547 220.368 61.624C219.984 62.0933 219.498 62.4613 218.912 62.728C218.325 62.9947 217.669 63.128 216.944 63.128C216.069 63.128 215.29 62.9413 214.608 62.568C213.925 62.1947 213.392 61.6613 213.008 60.968C212.624 60.2747 212.432 59.464 212.432 58.536C212.432 57.608 212.618 56.7973 212.992 56.104C213.376 55.4107 213.909 54.8773 214.592 54.504C215.274 54.1307 216.058 53.944 216.944 53.944C217.808 53.944 218.576 54.1253 219.248 54.488C219.92 54.8507 220.442 55.368 220.816 56.04C221.2 56.712 221.392 57.496 221.392 58.392ZM218.592 57.672C218.592 57.2027 218.432 56.8293 218.112 56.552C217.792 56.2747 217.392 56.136 216.912 56.136C216.453 56.136 216.064 56.2693 215.744 56.536C215.434 56.8027 215.242 57.1813 215.168 57.672H218.592ZM225.571 55.56C225.891 55.0693 226.291 54.6853 226.771 54.408C227.251 54.12 227.784 53.976 228.371 53.976V56.872H227.619C226.936 56.872 226.424 57.0213 226.083 57.32C225.742 57.608 225.571 58.12 225.571 58.856V63H222.835V54.072H225.571V55.56ZM233.743 63.128C232.868 63.128 232.079 62.9413 231.375 62.568C230.681 62.1947 230.132 61.6613 229.727 60.968C229.332 60.2747 229.135 59.464 229.135 58.536C229.135 57.6187 229.337 56.8133 229.743 56.12C230.148 55.416 230.703 54.8773 231.407 54.504C232.111 54.1307 232.9 53.944 233.775 53.944C234.649 53.944 235.439 54.1307 236.143 54.504C236.847 54.8773 237.401 55.416 237.807 56.12C238.212 56.8133 238.415 57.6187 238.415 58.536C238.415 59.4533 238.207 60.264 237.791 60.968C237.385 61.6613 236.825 62.1947 236.111 62.568C235.407 62.9413 234.617 63.128 233.743 63.128ZM233.743 60.76C234.265 60.76 234.708 60.568 235.071 60.184C235.444 59.8 235.631 59.2507 235.631 58.536C235.631 57.8213 235.449 57.272 235.087 56.888C234.735 56.504 234.297 56.312 233.775 56.312C233.241 56.312 232.799 56.504 232.447 56.888C232.095 57.2613 231.919 57.8107 231.919 58.536C231.919 59.2507 232.089 59.8 232.431 60.184C232.783 60.568 233.22 60.76 233.743 60.76ZM242.713 58.52C242.713 57.6027 242.884 56.7973 243.225 56.104C243.577 55.4107 244.052 54.8773 244.649 54.504C245.246 54.1307 245.913 53.944 246.649 53.944C247.236 53.944 247.769 54.0667 248.249 54.312C248.74 54.5573 249.124 54.888 249.401 55.304V51.16H252.137V63H249.401V61.72C249.145 62.1467 248.777 62.488 248.297 62.744C247.828 63 247.278 63.128 246.649 63.128C245.913 63.128 245.246 62.9413 244.649 62.568C244.052 62.184 243.577 61.6453 243.225 60.952C242.884 60.248 242.713 59.4373 242.713 58.52ZM249.401 58.536C249.401 57.8533 249.209 57.3147 248.825 56.92C248.452 56.5253 247.993 56.328 247.449 56.328C246.905 56.328 246.441 56.5253 246.057 56.92C245.684 57.304 245.497 57.8373 245.497 58.52C245.497 59.2027 245.684 59.7467 246.057 60.152C246.441 60.5467 246.905 60.744 247.449 60.744C247.993 60.744 248.452 60.5467 248.825 60.152C249.209 59.7573 249.401 59.2187 249.401 58.536ZM262.532 58.392C262.532 58.648 262.516 58.9147 262.484 59.192H256.292C256.335 59.7467 256.511 60.1733 256.82 60.472C257.14 60.76 257.53 60.904 257.988 60.904C258.671 60.904 259.146 60.616 259.412 60.04H262.324C262.175 60.6267 261.903 61.1547 261.508 61.624C261.124 62.0933 260.639 62.4613 260.052 62.728C259.466 62.9947 258.81 63.128 258.084 63.128C257.21 63.128 256.431 62.9413 255.748 62.568C255.066 62.1947 254.532 61.6613 254.148 60.968C253.764 60.2747 253.572 59.464 253.572 58.536C253.572 57.608 253.759 56.7973 254.132 56.104C254.516 55.4107 255.05 54.8773 255.732 54.504C256.415 54.1307 257.199 53.944 258.084 53.944C258.948 53.944 259.716 54.1253 260.388 54.488C261.06 54.8507 261.583 55.368 261.956 56.04C262.34 56.712 262.532 57.496 262.532 58.392ZM259.732 57.672C259.732 57.2027 259.572 56.8293 259.252 56.552C258.932 56.2747 258.532 56.136 258.052 56.136C257.594 56.136 257.204 56.2693 256.884 56.536C256.575 56.8027 256.383 57.1813 256.308 57.672H259.732ZM181.642 82.392C181.642 82.648 181.626 82.9147 181.594 83.192H175.402C175.444 83.7467 175.62 84.1733 175.93 84.472C176.25 84.76 176.639 84.904 177.098 84.904C177.78 84.904 178.255 84.616 178.522 84.04H181.434C181.284 84.6267 181.012 85.1547 180.618 85.624C180.234 86.0933 179.748 86.4613 179.162 86.728C178.575 86.9947 177.919 87.128 177.194 87.128C176.319 87.128 175.54 86.9413 174.858 86.568C174.175 86.1947 173.642 85.6613 173.258 84.968C172.874 84.2747 172.682 83.464 172.682 82.536C172.682 81.608 172.868 80.7973 173.242 80.104C173.626 79.4107 174.159 78.8773 174.842 78.504C175.524 78.1307 176.308 77.944 177.194 77.944C178.058 77.944 178.826 78.1253 179.498 78.488C180.17 78.8507 180.692 79.368 181.066 80.04C181.45 80.712 181.642 81.496 181.642 82.392ZM178.842 81.672C178.842 81.2027 178.682 80.8293 178.362 80.552C178.042 80.2747 177.642 80.136 177.162 80.136C176.703 80.136 176.314 80.2693 175.994 80.536C175.684 80.8027 175.492 81.1813 175.418 81.672H178.842ZM194.477 77.976C195.586 77.976 196.466 78.312 197.117 78.984C197.778 79.656 198.109 80.5893 198.109 81.784V87H195.389V82.152C195.389 81.576 195.234 81.1333 194.925 80.824C194.626 80.504 194.21 80.344 193.677 80.344C193.144 80.344 192.722 80.504 192.413 80.824C192.114 81.1333 191.965 81.576 191.965 82.152V87H189.245V82.152C189.245 81.576 189.09 81.1333 188.781 80.824C188.482 80.504 188.066 80.344 187.533 80.344C187 80.344 186.578 80.504 186.269 80.824C185.97 81.1333 185.821 81.576 185.821 82.152V87H183.085V78.072H185.821V79.192C186.098 78.8187 186.461 78.5253 186.909 78.312C187.357 78.088 187.864 77.976 188.429 77.976C189.101 77.976 189.698 78.12 190.221 78.408C190.754 78.696 191.17 79.1067 191.469 79.64C191.778 79.1493 192.2 78.7493 192.733 78.44C193.266 78.1307 193.848 77.976 194.477 77.976ZM202.759 79.336C203.025 78.92 203.393 78.584 203.863 78.328C204.332 78.072 204.881 77.944 205.511 77.944C206.247 77.944 206.913 78.1307 207.511 78.504C208.108 78.8773 208.577 79.4107 208.919 80.104C209.271 80.7973 209.447 81.6027 209.447 82.52C209.447 83.4373 209.271 84.248 208.919 84.952C208.577 85.6453 208.108 86.184 207.511 86.568C206.913 86.9413 206.247 87.128 205.511 87.128C204.892 87.128 204.343 87 203.863 86.744C203.393 86.488 203.025 86.1573 202.759 85.752V91.256H200.023V78.072H202.759V79.336ZM206.663 82.52C206.663 81.8373 206.471 81.304 206.087 80.92C205.713 80.5253 205.249 80.328 204.695 80.328C204.151 80.328 203.687 80.5253 203.303 80.92C202.929 81.3147 202.743 81.8533 202.743 82.536C202.743 83.2187 202.929 83.7573 203.303 84.152C203.687 84.5467 204.151 84.744 204.695 84.744C205.239 84.744 205.703 84.5467 206.087 84.152C206.471 83.7467 206.663 83.2027 206.663 82.52ZM213.618 79.56C213.938 79.0693 214.338 78.6853 214.818 78.408C215.298 78.12 215.831 77.976 216.418 77.976V80.872H215.666C214.983 80.872 214.471 81.0213 214.13 81.32C213.789 81.608 213.618 82.12 213.618 82.856V87H210.882V78.072H213.618V79.56ZM226.142 82.392C226.142 82.648 226.126 82.9147 226.094 83.192H219.902C219.944 83.7467 220.12 84.1733 220.43 84.472C220.75 84.76 221.139 84.904 221.598 84.904C222.28 84.904 222.755 84.616 223.022 84.04H225.934C225.784 84.6267 225.512 85.1547 225.118 85.624C224.734 86.0933 224.248 86.4613 223.662 86.728C223.075 86.9947 222.419 87.128 221.694 87.128C220.819 87.128 220.04 86.9413 219.358 86.568C218.675 86.1947 218.142 85.6613 217.758 84.968C217.374 84.2747 217.182 83.464 217.182 82.536C217.182 81.608 217.368 80.7973 217.742 80.104C218.126 79.4107 218.659 78.8773 219.342 78.504C220.024 78.1307 220.808 77.944 221.694 77.944C222.558 77.944 223.326 78.1253 223.998 78.488C224.67 78.8507 225.192 79.368 225.566 80.04C225.95 80.712 226.142 81.496 226.142 82.392ZM223.342 81.672C223.342 81.2027 223.182 80.8293 222.862 80.552C222.542 80.2747 222.142 80.136 221.662 80.136C221.203 80.136 220.814 80.2693 220.494 80.536C220.184 80.8027 219.992 81.1813 219.918 81.672H223.342ZM231.217 87.128C230.438 87.128 229.745 86.9947 229.137 86.728C228.529 86.4613 228.049 86.0987 227.697 85.64C227.345 85.1707 227.148 84.648 227.105 84.072H229.809C229.841 84.3813 229.985 84.632 230.241 84.824C230.497 85.016 230.812 85.112 231.185 85.112C231.526 85.112 231.788 85.048 231.969 84.92C232.161 84.7813 232.257 84.6053 232.257 84.392C232.257 84.136 232.124 83.9493 231.857 83.832C231.59 83.704 231.158 83.5653 230.561 83.416C229.921 83.2667 229.388 83.112 228.961 82.952C228.534 82.7813 228.166 82.52 227.857 82.168C227.548 81.8053 227.393 81.32 227.393 80.712C227.393 80.2 227.532 79.736 227.809 79.32C228.097 78.8933 228.513 78.5573 229.057 78.312C229.612 78.0667 230.268 77.944 231.025 77.944C232.145 77.944 233.025 78.2213 233.665 78.776C234.316 79.3307 234.689 80.0667 234.785 80.984H232.257C232.214 80.6747 232.076 80.4293 231.841 80.248C231.617 80.0667 231.318 79.976 230.945 79.976C230.625 79.976 230.38 80.04 230.209 80.168C230.038 80.2853 229.953 80.4507 229.953 80.664C229.953 80.92 230.086 81.112 230.353 81.24C230.63 81.368 231.057 81.496 231.633 81.624C232.294 81.7947 232.833 81.9653 233.249 82.136C233.665 82.296 234.028 82.5627 234.337 82.936C234.657 83.2987 234.822 83.7893 234.833 84.408C234.833 84.9307 234.684 85.4 234.385 85.816C234.097 86.2213 233.676 86.5413 233.121 86.776C232.577 87.0107 231.942 87.128 231.217 87.128ZM235.963 82.52C235.963 81.6027 236.134 80.7973 236.475 80.104C236.827 79.4107 237.302 78.8773 237.899 78.504C238.496 78.1307 239.163 77.944 239.899 77.944C240.528 77.944 241.078 78.072 241.547 78.328C242.027 78.584 242.395 78.92 242.651 79.336V78.072H245.387V87H242.651V85.736C242.384 86.152 242.011 86.488 241.531 86.744C241.062 87 240.512 87.128 239.883 87.128C239.158 87.128 238.496 86.9413 237.899 86.568C237.302 86.184 236.827 85.6453 236.475 84.952C236.134 84.248 235.963 83.4373 235.963 82.52ZM242.651 82.536C242.651 81.8533 242.459 81.3147 242.075 80.92C241.702 80.5253 241.243 80.328 240.699 80.328C240.155 80.328 239.691 80.5253 239.307 80.92C238.934 81.304 238.747 81.8373 238.747 82.52C238.747 83.2027 238.934 83.7467 239.307 84.152C239.691 84.5467 240.155 84.744 240.699 84.744C241.243 84.744 241.702 84.5467 242.075 84.152C242.459 83.7573 242.651 83.2187 242.651 82.536ZM250.998 87.128C250.22 87.128 249.526 86.9947 248.918 86.728C248.31 86.4613 247.83 86.0987 247.478 85.64C247.126 85.1707 246.929 84.648 246.886 84.072H249.59C249.622 84.3813 249.766 84.632 250.022 84.824C250.278 85.016 250.593 85.112 250.966 85.112C251.308 85.112 251.569 85.048 251.75 84.92C251.942 84.7813 252.038 84.6053 252.038 84.392C252.038 84.136 251.905 83.9493 251.638 83.832C251.372 83.704 250.94 83.5653 250.342 83.416C249.702 83.2667 249.169 83.112 248.742 82.952C248.316 82.7813 247.948 82.52 247.638 82.168C247.329 81.8053 247.174 81.32 247.174 80.712C247.174 80.2 247.313 79.736 247.59 79.32C247.878 78.8933 248.294 78.5573 248.838 78.312C249.393 78.0667 250.049 77.944 250.806 77.944C251.926 77.944 252.806 78.2213 253.446 78.776C254.097 79.3307 254.47 80.0667 254.566 80.984H252.038C251.996 80.6747 251.857 80.4293 251.622 80.248C251.398 80.0667 251.1 79.976 250.726 79.976C250.406 79.976 250.161 80.04 249.99 80.168C249.82 80.2853 249.734 80.4507 249.734 80.664C249.734 80.92 249.868 81.112 250.134 81.24C250.412 81.368 250.838 81.496 251.414 81.624C252.076 81.7947 252.614 81.9653 253.03 82.136C253.446 82.296 253.809 82.5627 254.118 82.936C254.438 83.2987 254.604 83.7893 254.614 84.408C254.614 84.9307 254.465 85.4 254.166 85.816C253.878 86.2213 253.457 86.5413 252.902 86.776C252.358 87.0107 251.724 87.128 250.998 87.128Z" fill="#091929"/>
<path d="M308.192 26.7333C307.051 26.7333 306.126 25.8976 306.126 24.8667C306.126 23.8357 307.051 23 308.192 23C309.332 23 310.257 23.8357 310.257 24.8667C310.257 25.8976 309.332 26.7333 308.192 26.7333Z" fill="#ED8975"/>
<path d="M314.978 26.7333C313.838 26.7333 312.913 25.8976 312.913 24.8667C312.913 23.8357 313.838 23 314.978 23C316.119 23 317.044 23.8357 317.044 24.8667C317.044 25.8976 316.119 26.7333 314.978 26.7333Z" fill="#ED8975"/>
<path d="M321.765 26.7333C320.624 26.7333 319.7 25.8976 319.7 24.8667C319.7 23.8357 320.624 23 321.765 23C322.906 23 323.831 23.8357 323.831 24.8667C323.831 25.8976 322.906 26.7333 321.765 26.7333Z" fill="#ED8975"/>
<path d="M71.7035 83.356C71.9755 83.14 72.0995 83.04 72.0755 83.056C72.8595 82.408 73.4755 81.876 73.9235 81.46C74.3795 81.044 74.7635 80.608 75.0755 80.152C75.3875 79.696 75.5435 79.252 75.5435 78.82C75.5435 78.492 75.4675 78.236 75.3155 78.052C75.1635 77.868 74.9355 77.776 74.6315 77.776C74.3275 77.776 74.0875 77.892 73.9115 78.124C73.7435 78.348 73.6595 78.668 73.6595 79.084H71.6795C71.6955 78.404 71.8395 77.836 72.1115 77.38C72.3915 76.924 72.7555 76.588 73.2035 76.372C73.6595 76.156 74.1635 76.048 74.7155 76.048C75.6675 76.048 76.3835 76.292 76.8635 76.78C77.3515 77.268 77.5955 77.904 77.5955 78.688C77.5955 79.544 77.3035 80.34 76.7195 81.076C76.1355 81.804 75.3915 82.516 74.4875 83.212H77.7275V84.88H71.7035V83.356ZM84.7989 78.028H81.0549V79.684C81.2149 79.508 81.4389 79.364 81.7269 79.252C82.0149 79.14 82.3269 79.084 82.6629 79.084C83.2629 79.084 83.7589 79.22 84.1509 79.492C84.5509 79.764 84.8429 80.116 85.0269 80.548C85.2109 80.98 85.3029 81.448 85.3029 81.952C85.3029 82.888 85.0389 83.632 84.5109 84.184C83.9829 84.728 83.2389 85 82.2789 85C81.6389 85 81.0829 84.892 80.6109 84.676C80.1389 84.452 79.7749 84.144 79.5189 83.752C79.2629 83.36 79.1229 82.908 79.0989 82.396H81.1029C81.1509 82.644 81.2669 82.852 81.4509 83.02C81.6349 83.18 81.8869 83.26 82.2069 83.26C82.5829 83.26 82.8629 83.14 83.0469 82.9C83.2309 82.66 83.3229 82.34 83.3229 81.94C83.3229 81.548 83.2269 81.248 83.0349 81.04C82.8429 80.832 82.5629 80.728 82.1949 80.728C81.9229 80.728 81.6989 80.796 81.5229 80.932C81.3469 81.06 81.2309 81.232 81.1749 81.448H79.1949V76.228H84.7989V78.028Z" fill="#091929"/>
<path d="M122.613 78.606C122.613 99.5915 103.622 117.444 79.1042 117.444C54.5866 117.444 35.5952 99.5915 35.5952 78.606C35.5952 57.6205 54.5866 39.7679 79.1042 39.7679C103.622 39.7679 122.613 57.6205 122.613 78.606Z" stroke="#091929" stroke-width="10"/>
<path d="M76.1269 39.859C87.7923 39.1439 99.2242 42.6556 107.908 49.5063C116.577 56.3449 121.757 65.9026 122.516 76.0131C123.275 86.1169 119.575 96.1736 112.052 103.961C104.512 111.767 93.7463 116.638 82.0816 117.353" stroke="#53D3D1" stroke-width="10" stroke-linecap="round"/>
</svg>
