<svg xmlns="http://www.w3.org/2000/svg" viewBox="0 0 1000 1000"><defs><style>.cls-1{fill:#002447;}.cls-2{fill:#53d3d1;}</style></defs><title>Prancheta 1</title><g id="Camada_2" data-name="Camada 2"><rect class="cls-1" width="1000" height="1000"/></g><g id="Camada_1" data-name="Camada 1"><path class="cls-2" d="M782,544.85v0c-2.36-8.53-5.45-19.13-9.21-32.06q-1.57-5.44-3.32-11.44c-.81-2.78-1.62-5.52-2.41-8.22-5.27-17.94-10.29-34.27-14.64-47.44-.07-.24-.16-.47-.24-.72a15,15,0,0,0-8.17-8.57c-.22-.1-.45-.19-.68-.27-.94-.41-1.9-.77-2.87-1.1A56.08,56.08,0,0,0,696,438.47c-4.44,11.25-9.62,25.59-15.07,41.71-2.18,6.44-4.4,13.17-6.61,20.09-1.19,3.66-2.32,7.27-3.43,10.83-4.43,14.21-8.32,27.45-11.44,38.92l-.18.62A13.18,13.18,0,0,0,664.88,565a12.62,12.62,0,0,0,2.88,1.41l.2.06c.22.07.45.12.67.18l.74.19h0a.76.76,0,0,0,.16,0h.09a43.66,43.66,0,0,0,26-1.87l5.56-24.65.37-1.67h40.59l.45,1.94,2.82,12.32,1.26,5.52a14.9,14.9,0,0,0,8.83,8.08l.07,0,1,.3.15,0a2.09,2.09,0,0,0,.36.07.35.35,0,0,0,.14,0l.09,0a.38.38,0,0,1,.1,0,36.34,36.34,0,0,0,8.53,1,37.18,37.18,0,0,0,13.84-2.65l-.16-.26a9.84,9.84,0,0,0,2.35-.71c.25-.1.48-.23.72-.34a.51.51,0,0,0,.15-.07,10.3,10.3,0,0,0,3.33-2.89C785.28,556.91,783.85,551.52,782,544.85Zm-46.81-35.61-.13-.46H708.87l4-13.37,8.09-27c.72-2.94,2.46-2.94,3.14-.06l10.95,40.44h.46A4.84,4.84,0,0,0,735.18,509.24Z"/><path class="cls-2" d="M645.64,434.63l-.32-.1h0l-.55-.17-.07,0-.55-.13s0,0,0,0l-.31-.07a36.83,36.83,0,0,0-9.21-1.15,37.31,37.31,0,0,0-15.92,3.54c-.77.36-1.5.74-2.22,1.16h0L611.19,458l-8.34,32.29-6.54,25.32h0L593,528.49v0l-.17.61a1.18,1.18,0,0,1-1,.6,1.21,1.21,0,0,1-1.08-.67v0l-.08-.27v0l-3.46-11.67-7.67-25.94-9.46-32L565.26,443l-.44-.06A18.69,18.69,0,0,0,549.23,433c-.31,0-.64,0-1,0s-.65,0-1,0A37.16,37.16,0,0,0,525,441.1c4,14.9,9.09,31.26,15,48.45q2.82,8.24,5.91,16.69c.2.53.39,1.06.59,1.6,6.26,17,12.72,33.07,19.11,47.66.34.76.67,1.53,1,2.28a14.19,14.19,0,0,0,7.19,6.25l1.06.35.12,0c.6.19,1.21.37,1.83.53a2.44,2.44,0,0,0,.33.1l.17.05.65.17.65.16a56.6,56.6,0,0,0,26.09.17l.17,0c.29-.06.58-.13.87-.22l.14,0a1.41,1.41,0,0,0,.22-.06h.06l.43-.12h0l.26-.08a17.16,17.16,0,0,0,3.69-1.64,1.93,1.93,0,0,0,.24-.13,18.68,18.68,0,0,0,7.15-7.72v0c.25-.55.48-1.11.72-1.67l.06-.12c3.62-8.37,7.26-17.2,10.88-26.41.33-.85.68-1.73,1-2.59q3.24-8.28,6.39-16.92l.39-1.05q3.38-9.23,6.21-18.14c4.25-13.28,7.65-26,10.28-37.89.1-.45.2-.91.28-1.36a.54.54,0,0,0,.05-.21,13.56,13.56,0,0,0,.16-2A13.29,13.29,0,0,0,645.64,434.63Z"/><path class="cls-2" d="M359.9,494.42l-4.51-45-.2-2a15.53,15.53,0,0,0-9.28-11.74l-.11-.05c-.33-.13-.67-.26-1-.36l-.31-.11a45.16,45.16,0,0,0-14.9-2.51,46.62,46.62,0,0,0-6.41.45,45.54,45.54,0,0,0-11.79,3.34c-.61.26-1.2.53-1.77.82l-11,35.42L290,500.23h0v.06l0,.13a.74.74,0,0,1-.7.46.71.71,0,0,1-.67-.46l-.05-.13,0-.16-.26-.83-1.44-4.51-6.89-21.71-8.11-25.55,0-.1a18.54,18.54,0,0,0-6.6-9.38h0a19,19,0,0,0-4.85-2.65l-.07,0-.67-.23a43.78,43.78,0,0,0-5-1.44,45.91,45.91,0,0,0-22.06.56,45.19,45.19,0,0,0-12.27,7.21L218,480l-1.6,28.25-.29,5.12L213.83,553v0l-.06.92v.27c0,.33,0,.65,0,1s.05.63.11.95a10.07,10.07,0,0,0,.48,1.87c.08.26.19.52.29.77v0c.12.28.25.57.39.83s.24.44.37.66.21.32.31.46a11.13,11.13,0,0,0,1.49,1.8c.18.17.35.33.54.49l.29.23c.17.15.36.29.53.42a7.66,7.66,0,0,0,.76.5l0,0c.26.16.52.3.78.43s.49.24.73.35l.16.07.34.13.32.1a.67.67,0,0,0,.15.06l.11,0,.22.08.17,0,.16,0a45.27,45.27,0,0,0,28.57-1l1.07-41.71v-.92l1.07-41.54,0-1.54a.74.74,0,0,1,1.43-.29l0,.13.88,2.81,3.3,10.72,7.87,25.46.18.6,3.17,10.22.05.13v.13l0,.1h0l.05.15a11.67,11.67,0,0,0,1.58,3.18,11.82,11.82,0,0,0,4.17,3.65c.53.24,1.08.47,1.64.69a4.19,4.19,0,0,0,.47.14s0,0,0,0a33.76,33.76,0,0,0,27.75-1.9c.55-.29,1.07-.59,1.58-.92l4.15-14.09,8.61-29.15,3.08-10.46.09-.26a.73.73,0,0,1,.66-.42.75.75,0,0,1,.73.59l0,.24.67,19.55.84,23.47,1.08,30.8v0l0,.84A11.72,11.72,0,0,0,335,565.08a5.11,5.11,0,0,0,.66.22,37.35,37.35,0,0,0,31-3l-5.18-52Z"/><path class="cls-2" d="M450.13,432.64A67.36,67.36,0,1,0,517.49,500,67.36,67.36,0,0,0,450.13,432.64ZM477,531.77a22.85,22.85,0,0,1-10.15,6.68l-.46.14c-.52.15-1,.29-1.56.39a66,66,0,0,1-7.78,1.65v6.94a3.1,3.1,0,0,1-3.11,3.1h-7.3a3.1,3.1,0,0,1-3.1-3.1v-6.38a66,66,0,0,1-20.23-4.37h0c-.46-.18-.94-.36-1.38-.55,0,0,0,0-.06,0h0a6.42,6.42,0,0,1-3.24-4.69,4.47,4.47,0,0,1-.09-1v-.33a6.49,6.49,0,0,1,.17-1.25l0-.1.32-.94,0-.12,1.53-4.34a6.49,6.49,0,0,1,3.55-4,6.37,6.37,0,0,1,4.2-.39s0,0,0,0c.4.15.81.31,1.22.43l.09,0v0a64.29,64.29,0,0,0,8.28,2.35A67.33,67.33,0,0,0,452,523.42h.25a5.7,5.7,0,0,0,5.85-5.47,5.37,5.37,0,0,0-2.61-4.54,2.49,2.49,0,0,0-.48-.26,65.32,65.32,0,0,0-11-4.68l-.4-.12c-1.32-.43-2.6-.88-3.89-1.37a70,70,0,0,1-9.12-4.36l-.07,0a21.58,21.58,0,0,1-4.51-2.88s-.06,0-.1-.07a22.19,22.19,0,0,1-7.16-10.77,21,21,0,0,1-.93-5.84,5.72,5.72,0,0,1,0-.58,22.33,22.33,0,0,1,15.65-21.3l1.07-.29c.55-.13,1.09-.25,1.66-.36,0,0,0-.05,0-.08a68.24,68.24,0,0,1,7.31-1.36v-6.63a3.1,3.1,0,0,1,3.1-3.1h7.3a3.1,3.1,0,0,1,3.11,3.1v6.27a67.05,67.05,0,0,1,16.83,3.48l.53.19.07,0c.29.1.57.18.84.3l.05,0a6.42,6.42,0,0,1,3.38,3.7,6.21,6.21,0,0,1,.39,2.2,6.6,6.6,0,0,1-.29,1.94l-1.39,4.3,0,.14-.34,1.08h0a6.32,6.32,0,0,1-2.68,3s0,0,0,0a6.39,6.39,0,0,1-3.28.89,6.32,6.32,0,0,1-1.75-.24l-.29-.1-.2-.07-.21-.07-.08,0-.48-.16-.23-.08q-2.93-.93-6-1.6a66.94,66.94,0,0,0-14.33-1.57h-.14c-3.09.05-5.56,2.29-5.56,5.05a4.83,4.83,0,0,0,1.53,3.47c.33.25.65.51,1,.75a.51.51,0,0,1,.13.09,22.46,22.46,0,0,0,7.34,3.43h.05a66.86,66.86,0,0,1,19.32,8.44s.05,0,.07.05c.88.55,1.73,1.13,2.59,1.73l0,0a22.49,22.49,0,0,1,8.62,16.92c0,.27,0,.56,0,.84A22.52,22.52,0,0,1,477,531.77Z"/></g></svg>