<svg width="574" height="124" viewBox="0 0 574 124" fill="none" xmlns="http://www.w3.org/2000/svg">
<path d="M569 102.365C566.64 94.688 563.55 85.148 559.79 73.511C558.743 70.247 557.637 66.815 556.47 63.215C555.66 60.713 554.85 58.247 554.06 55.817C548.79 39.671 543.77 24.974 539.42 13.121C539.35 12.905 539.26 12.698 539.18 12.473C538.471 10.7557 537.381 9.18628 535.976 7.86028C534.572 6.53427 532.882 5.47943 531.01 4.75999C530.79 4.66999 530.56 4.589 530.33 4.517C529.39 4.148 528.43 3.82399 527.46 3.52699C520.208 1.27925 512.521 0.394285 504.873 0.926805C497.226 1.45932 489.782 3.39801 483 6.623C478.56 16.748 473.38 29.654 467.93 44.162C465.75 49.958 463.53 56.015 461.32 62.243C460.13 65.537 459 68.786 457.89 71.99C453.46 84.779 449.57 96.695 446.45 107.018L446.27 107.576C445.579 109.988 445.749 112.534 446.756 114.853C447.763 117.173 449.556 119.148 451.88 120.5C452.776 121.032 453.744 121.458 454.76 121.769L454.96 121.823C455.18 121.886 455.41 121.931 455.63 121.985L456.37 122.156C456.423 122.161 456.477 122.161 456.53 122.156H456.62C465.275 123.991 474.346 123.404 482.62 120.473L488.18 98.288L488.55 96.785H529.14L529.59 98.531L532.41 109.619L533.67 114.587C534.503 116.283 535.718 117.804 537.238 119.056C538.758 120.308 540.55 121.262 542.5 121.859H542.57L543.57 122.129H543.72C543.838 122.159 543.958 122.181 544.08 122.192C544.126 122.201 544.174 122.201 544.22 122.192H544.31C544.343 122.188 544.377 122.188 544.41 122.192C547.204 122.794 550.067 123.097 552.94 123.092C557.68 123.098 562.378 122.289 566.78 120.707L566.62 120.473C567.43 120.349 568.219 120.134 568.97 119.834C569.22 119.744 569.45 119.627 569.69 119.528C569.743 119.514 569.794 119.493 569.84 119.465C571.146 118.824 572.282 117.937 573.17 116.864C572.28 113.219 570.85 108.368 569 102.365ZM522.19 70.316L522.06 69.902H495.87L499.87 57.869L507.96 33.569C508.68 30.923 510.42 30.923 511.1 33.515L522.05 69.911H522.51C522.391 70.0402 522.281 70.1754 522.18 70.316H522.19Z" fill="#53D3D1"/>
<path d="M432.64 3.16702L432.32 3.07701L431.77 2.924H431.7L431.15 2.80702L430.84 2.74401C427.831 2.05085 424.736 1.7031 421.63 1.70902C416.127 1.70142 410.691 2.78939 405.71 4.895C404.94 5.219 404.21 5.561 403.49 5.939L398.19 24.2L389.85 53.261L383.31 76.049L380 87.641L379.83 88.1899C379.73 88.3502 379.585 88.4842 379.409 88.5789C379.234 88.6736 379.034 88.7256 378.83 88.73C378.606 88.7295 378.386 88.6728 378.195 88.5663C378.004 88.4598 377.85 88.3078 377.75 88.127V88.127L377.67 87.884L374.21 77.381L366.54 54.035L357.08 25.235L352.26 10.7L351.82 10.646C350.306 8.06614 348.073 5.88488 345.34 4.31646C342.607 2.74804 339.467 1.84638 336.23 1.70001C335.92 1.70001 335.59 1.70001 335.23 1.70001C334.87 1.70001 334.58 1.70001 334.23 1.70001C326.135 1.88534 318.33 4.44514 312 8.99001C316 22.4 321.09 37.124 327 52.595C328.88 57.539 330.85 62.546 332.91 67.616C333.11 68.093 333.3 68.57 333.5 69.056C339.76 84.356 346.22 98.819 352.61 111.95C352.95 112.634 353.28 113.327 353.61 114.002C355.215 116.567 357.755 118.554 360.8 119.627L361.86 119.942H361.98C362.58 120.113 363.19 120.275 363.81 120.419C363.917 120.456 364.028 120.486 364.14 120.509L364.31 120.554L364.96 120.707L365.61 120.851C374.175 122.73 383.109 122.782 391.7 121.004H391.87C392.16 120.95 392.45 120.887 392.74 120.806H392.88C392.955 120.793 393.028 120.775 393.1 120.752H393.16L393.59 120.644L393.85 120.572C395.14 120.212 396.379 119.717 397.54 119.096C397.623 119.062 397.703 119.023 397.78 118.979C400.854 117.327 403.336 114.916 404.93 112.031C405.18 111.536 405.41 111.032 405.65 110.528L405.71 110.42C409.33 102.887 412.97 94.94 416.59 86.651C416.92 85.886 417.27 85.094 417.59 84.32C419.75 79.352 421.88 74.276 423.98 69.092L424.37 68.147C426.623 62.609 428.693 57.167 430.58 51.821C434.83 39.869 438.23 28.421 440.86 17.72C440.96 17.315 441.06 16.901 441.14 16.496C441.171 16.4367 441.188 16.3724 441.19 16.307C441.293 15.7114 441.346 15.1097 441.35 14.507C441.375 12.039 440.552 9.62433 438.993 7.59409C437.433 5.56385 435.214 4.01747 432.64 3.16702V3.16702Z" fill="#53D3D1"/>
<path d="M146.9 56.978L142.39 16.478L142.19 14.678C141.757 12.3559 140.68 10.1698 139.057 8.32268C137.435 6.47553 135.32 5.02715 132.91 4.11201L132.8 4.06702C132.47 3.95002 132.13 3.833 131.8 3.743L131.49 3.64402C126.7 2.14325 121.662 1.37956 116.59 1.38501C114.446 1.38716 112.304 1.5225 110.18 1.79002C106.117 2.3094 102.152 3.32055 98.39 4.79602C97.78 5.03002 97.19 5.27302 96.62 5.53402L85.62 37.412L77 62.207V62.261V62.378C76.9435 62.5026 76.8463 62.6088 76.7213 62.6827C76.5964 62.7566 76.4495 62.7947 76.3 62.792C76.1547 62.793 76.0125 62.7539 75.8927 62.6798C75.7729 62.6058 75.6812 62.5005 75.63 62.378L75.58 62.261V62.117L75.32 61.37L73.88 57.311L66.99 37.772L58.88 14.777V14.687C57.7267 11.3159 55.4161 8.36044 52.28 6.245C50.8011 5.24151 49.1672 4.43801 47.43 3.86001H47.36L46.69 3.65303C45.0534 3.13219 43.3837 2.69943 41.69 2.35702C34.4005 0.908366 26.8284 1.08136 19.63 2.86102C15.1849 4.42718 11.0435 6.61733 7.36 9.35002L5 44L3.39999 69.425L3.11 74.033L0.830002 109.7L0.770004 110.528V110.771C0.770004 111.068 0.770004 111.356 0.770004 111.671C0.770004 111.986 0.820005 112.238 0.880005 112.526C0.979745 113.1 1.14048 113.663 1.36 114.209C1.44 114.443 1.54999 114.677 1.64999 114.902C1.76999 115.154 1.89999 115.415 2.03999 115.649C2.17999 115.883 2.28 116.045 2.41 116.243C2.54 116.441 2.62 116.531 2.72 116.657C3.15213 117.243 3.65156 117.786 4.21001 118.277C4.39001 118.43 4.56 118.574 4.75 118.718L5.03999 118.925C5.20999 119.06 5.40001 119.186 5.57001 119.303C5.81321 119.466 6.06699 119.617 6.33 119.753V119.753C6.59 119.897 6.85 120.023 7.11 120.14C7.37 120.257 7.6 120.356 7.84 120.455L8 120.518L8.34 120.635L8.66 120.725C8.7074 120.748 8.75776 120.767 8.81 120.779H8.92L9.14 120.851H9.31H9.47C18.8514 123.336 28.8747 123.02 38.04 119.951L39.11 82.412V81.584L40.18 44.198V42.812C40.1744 42.6548 40.2309 42.5009 40.3393 42.3775C40.4478 42.2542 40.6013 42.1693 40.7726 42.1381C40.9438 42.1068 41.1219 42.1311 41.2752 42.2067C41.4285 42.2823 41.5471 42.4043 41.61 42.551V42.668L42.49 45.197L45.79 54.845L53.66 77.759L53.84 78.299L57.01 87.497L57.06 87.614V87.7311V87.821L57.11 87.9561C57.4714 88.977 58.0042 89.9422 58.69 90.818C59.7711 92.195 61.2004 93.3209 62.86 94.103C63.39 94.319 63.94 94.526 64.5 94.724C64.6538 94.7742 64.8107 94.8163 64.97 94.85C64.97 94.85 64.97 94.85 64.97 94.85C69.465 96.3554 74.2648 96.9815 79.0498 96.6867C83.8347 96.3918 88.4949 95.1827 92.72 93.14C93.27 92.879 93.79 92.609 94.3 92.312L98.45 79.631L107.06 53.396L110.14 43.982L110.23 43.748C110.289 43.6351 110.382 43.5397 110.499 43.4727C110.616 43.4058 110.751 43.3702 110.89 43.37C111.061 43.3706 111.226 43.4235 111.359 43.52C111.491 43.6166 111.584 43.751 111.62 43.901V44.117L112.29 61.712L113.13 82.835L114.21 110.555V111.311C114.359 113.371 115.176 115.347 116.561 116.994C117.946 118.64 119.837 119.884 122 120.572C122.215 120.651 122.435 120.718 122.66 120.77C127.739 122.354 133.138 122.933 138.488 122.467C143.838 122.001 149.013 120.501 153.66 118.07L148.48 71.27L146.9 56.978Z" fill="#53D3D1"/>
<path d="M237.13 1.37601C223.807 1.37601 210.784 4.93154 199.707 11.593C188.629 18.2544 179.996 27.7226 174.897 38.8002C169.799 49.8778 168.465 62.0673 171.064 73.8272C173.663 85.5871 180.079 96.3892 189.499 104.868C198.92 113.346 210.922 119.12 223.989 121.459C237.055 123.798 250.599 122.598 262.908 118.009C275.216 113.421 285.736 105.65 293.138 95.6809C300.539 85.7113 304.49 73.9903 304.49 62C304.49 45.9215 297.393 30.5016 284.761 19.1324C272.128 7.76315 254.995 1.37601 237.13 1.37601V1.37601ZM264 90.593C261.282 93.3847 257.774 95.4622 253.85 96.605L253.39 96.731C252.87 96.866 252.39 96.992 251.83 97.082C249.272 97.7173 246.674 98.2132 244.05 98.567V104.813C244.05 105.18 243.969 105.544 243.813 105.883C243.657 106.222 243.427 106.53 243.138 106.789C242.85 107.048 242.507 107.254 242.129 107.393C241.752 107.533 241.348 107.604 240.94 107.603H233.64C233.233 107.603 232.83 107.531 232.454 107.391C232.078 107.25 231.736 107.045 231.448 106.786C231.16 106.527 230.932 106.219 230.776 105.881C230.62 105.542 230.54 105.179 230.54 104.813V99.071C223.609 98.7257 216.782 97.3983 210.31 95.138V95.138C209.85 94.976 209.37 94.814 208.93 94.643C208.93 94.643 208.93 94.643 208.87 94.643C208.005 94.2115 207.263 93.6061 206.701 92.8739C206.139 92.1417 205.772 91.3026 205.63 90.422C205.563 90.126 205.532 89.8241 205.54 89.522V89.225C205.556 88.8459 205.613 88.4691 205.71 88.1V88.01L206.03 87.164V87.056L207.56 83.15C207.834 82.3574 208.292 81.6263 208.904 81.0056C209.516 80.3848 210.268 79.8886 211.11 79.55C212.425 79.0071 213.906 78.8833 215.31 79.199C215.71 79.334 216.12 79.478 216.53 79.586H216.62C219.324 80.4567 222.091 81.1633 224.9 81.701C229.533 82.6055 234.259 83.067 239 83.078H239.25C240.748 83.1146 242.203 82.6184 243.298 81.697C244.393 80.7756 245.04 79.5031 245.1 78.155C245.089 77.3301 244.843 76.5215 244.386 75.8062C243.929 75.091 243.276 74.4929 242.49 74.069C242.34 73.9754 242.179 73.897 242.01 73.835C238.494 72.1314 234.812 70.7215 231.01 69.623L230.61 69.515C229.29 69.128 228.01 68.723 226.72 68.282C223.579 67.1735 220.531 65.8621 217.6 64.358H217.53C215.913 63.6657 214.398 62.795 213.02 61.766C213.02 61.766 212.96 61.766 212.92 61.703C209.517 59.1835 207.024 55.8092 205.76 52.01C205.176 50.3062 204.863 48.5367 204.83 46.754C204.82 46.5801 204.82 46.4059 204.83 46.232C204.832 41.9535 206.35 37.7871 209.165 34.3392C211.98 30.8913 215.944 28.3419 220.48 27.062L221.55 26.801C222.1 26.684 222.64 26.576 223.21 26.477C223.21 26.477 223.21 26.432 223.21 26.405C225.62 25.8777 228.06 25.4691 230.52 25.181V19.214C230.52 18.474 230.847 17.7644 231.428 17.2412C232.009 16.7179 232.798 16.424 233.62 16.424H240.92C241.328 16.4228 241.732 16.4941 242.109 16.6338C242.487 16.7735 242.83 16.9788 243.118 17.238C243.407 17.4972 243.637 17.8051 243.793 18.1442C243.949 18.4833 244.03 18.8468 244.03 19.214V24.857C249.766 25.2469 255.422 26.2996 260.86 27.989L261.39 28.16H261.46C261.75 28.25 262.03 28.322 262.3 28.43H262.35C263.133 28.7527 263.835 29.2138 264.416 29.7859C264.997 30.358 265.443 31.0293 265.73 31.76C265.992 32.3933 266.124 33.0642 266.12 33.74C266.12 34.3318 266.023 34.9203 265.83 35.486L264.44 39.356V39.482L264.1 40.454C263.557 41.5927 262.616 42.5407 261.42 43.154C261.42 43.154 261.42 43.154 261.42 43.154C260.427 43.6826 259.294 43.9594 258.14 43.955C257.548 43.9571 256.959 43.8844 256.39 43.739L256.1 43.649L255.9 43.586L255.69 43.523H255.61L255.13 43.379L254.9 43.307C252.947 42.749 250.947 42.269 248.9 41.867C244.194 40.9331 239.389 40.4594 234.57 40.454H234.43C231.34 40.499 228.87 42.515 228.87 44.999C228.878 45.5855 229.017 46.1646 229.28 46.7013C229.543 47.238 229.924 47.7213 230.4 48.122C230.73 48.347 231.05 48.581 231.4 48.797C231.448 48.8177 231.492 48.8451 231.53 48.878C233.749 50.2989 236.236 51.345 238.87 51.965H238.92C245.766 53.5615 252.287 56.1254 258.24 59.561C258.24 59.561 258.29 59.561 258.31 59.606C259.19 60.101 260.04 60.623 260.9 61.163C263.484 62.9819 265.594 65.2875 267.083 67.9181C268.572 70.5486 269.404 73.4405 269.52 76.391C269.52 76.634 269.52 76.895 269.52 77.147C269.561 82.0845 267.598 86.8658 264 90.593V90.593Z" fill="#53D3D1"/>
</svg>
