<svg width="35" height="39" viewBox="0 0 35 39" fill="none" xmlns="http://www.w3.org/2000/svg">
<path d="M34.5478 19.7209V22.8261L29.6916 27.3643L17.3828 15.1651V6.29308L25.9659 2.61816V11.2155L34.5478 19.7209Z" fill="#ED8975"/>
<path d="M29.6917 27.3643L23.2778 33.3151L8.7832 18.9496V2.61816L17.3828 6.29308V15.1651L29.6917 27.3643Z" fill="#53D3D1"/>
<path d="M23.2724 33.3151L18.7794 37.5096C17.9909 38.245 16.761 38.245 15.9725 37.5096L0.200012 22.8262V2.02959C0.200905 1.34675 0.548198 0.710122 1.1242 0.335445C1.7002 -0.0392311 2.4277 -0.101728 3.06016 0.169134L8.7832 2.61818V18.9496L23.2724 33.3151Z" fill="#091929"/>
<path d="M34.5478 2.02959V19.7209L25.9659 11.2155V2.61818L31.6876 0.169134C32.3201 -0.101728 33.0476 -0.0392311 33.6236 0.335445C34.1996 0.710122 34.5469 1.34675 34.5478 2.02959Z" fill="#ED8975"/>
</svg>
