<svg width="55" height="55" viewBox="0 0 55 55" fill="none" xmlns="http://www.w3.org/2000/svg">
<path d="M44.7693 25.4702L43.6516 14.0381L43.6021 13.53C43.4948 12.8746 43.2278 12.2575 42.8258 11.7361C42.4237 11.2147 41.8997 10.8059 41.3023 10.5475L41.2751 10.5348C41.1933 10.5018 41.109 10.4688 41.0272 10.4434L40.9504 10.4154C39.7633 9.99181 38.515 9.77624 37.2579 9.77778C36.7265 9.77839 36.1957 9.81659 35.6694 9.8921C34.6627 10.0387 33.6798 10.3241 32.7477 10.7406C32.5965 10.8067 32.4503 10.8753 32.309 10.9489L29.583 19.9472L27.4468 26.9462V26.9614V26.9944C27.4328 27.0296 27.4087 27.0596 27.3778 27.0805C27.3468 27.1013 27.3104 27.1121 27.2734 27.1113C27.2373 27.1116 27.2021 27.1005 27.1724 27.0796C27.1427 27.0587 27.12 27.029 27.1073 26.9944L27.0949 26.9614V26.9208L27.0305 26.7099L26.6736 25.5642L24.9662 20.0488L22.9564 13.558V13.5326C22.6706 12.581 22.098 11.7468 21.3208 11.1496C20.9543 10.8664 20.5494 10.6396 20.1188 10.4764H20.1015L19.9355 10.418C19.5299 10.271 19.1161 10.1488 18.6964 10.0522C16.8899 9.64324 15.0134 9.69207 13.2295 10.1944C12.1279 10.6365 11.1016 11.2547 10.1888 12.0261L9.60393 21.8068L9.20742 28.9836L9.13556 30.2843L8.57053 40.3521L8.55566 40.5859V40.6545C8.55566 40.7383 8.55566 40.8196 8.55566 40.9085C8.55566 40.9974 8.56806 41.0686 8.58292 41.1499C8.60764 41.3117 8.64747 41.4708 8.70188 41.6249C8.7217 41.691 8.74896 41.757 8.77374 41.8205C8.80348 41.8917 8.8357 41.9653 8.87039 42.0314C8.90508 42.0974 8.92987 42.1432 8.96209 42.1991C8.9943 42.255 9.01413 42.2803 9.03891 42.3159C9.146 42.4812 9.26976 42.6345 9.40816 42.7732C9.45277 42.8164 9.49489 42.857 9.54198 42.8977L9.61384 42.9561C9.65597 42.9942 9.70306 43.0298 9.74519 43.0628C9.80546 43.1089 9.86835 43.1514 9.93353 43.1898C9.99796 43.2305 10.0624 43.266 10.1268 43.2991C10.1913 43.3321 10.2483 43.3601 10.3077 43.388L10.3474 43.4058L10.4316 43.4388L10.5109 43.4642C10.5227 43.4708 10.5352 43.4759 10.5481 43.4794H10.5754L10.6299 43.4998H10.672H10.7117C13.0366 44.2013 15.5205 44.1121 17.7918 43.2457L18.057 32.6495V32.4158L18.3222 21.8627V21.4715C18.3208 21.4271 18.3348 21.3837 18.3617 21.3488C18.3885 21.314 18.4266 21.2901 18.469 21.2813C18.5115 21.2724 18.5556 21.2793 18.5936 21.3006C18.6316 21.322 18.661 21.3564 18.6765 21.3978V21.4308L18.8946 22.1447L19.7124 24.8681L21.6628 31.3361L21.7074 31.4885L22.4929 34.0849L22.5053 34.1179V34.1509V34.1763L22.5177 34.2144C22.6073 34.5026 22.7393 34.775 22.9093 35.0223C23.1772 35.411 23.5314 35.7288 23.9427 35.9495C24.074 36.0105 24.2103 36.0689 24.3491 36.1248C24.3872 36.139 24.4261 36.1509 24.4656 36.1604C25.5795 36.5853 26.769 36.7621 27.9548 36.6788C29.1406 36.5956 30.2955 36.2543 31.3425 35.6777C31.4788 35.604 31.6077 35.5278 31.7341 35.444L32.7625 31.8645L34.8962 24.4591L35.6595 21.8018L35.6818 21.7357C35.6964 21.7038 35.7195 21.6769 35.7485 21.658C35.7774 21.6391 35.8111 21.629 35.8454 21.629C35.8877 21.6292 35.9286 21.6441 35.9615 21.6713C35.9944 21.6986 36.0173 21.7365 36.0263 21.7789V21.8399L36.1923 26.8064L36.4005 32.7689L36.6681 40.5935V40.8069C36.705 41.3885 36.9076 41.9462 37.2508 42.4109C37.5939 42.8756 38.0626 43.2268 38.5986 43.421C38.6519 43.4434 38.7065 43.4621 38.7622 43.4769C40.0208 43.924 41.3587 44.0874 42.6846 43.9559C44.0104 43.8243 45.2929 43.401 46.4446 42.7148L45.1609 29.5044L44.7693 25.4702Z" fill="#53D3D1"/>
</svg>
