<svg width="168" height="41" viewBox="0 0 168 41" fill="none" xmlns="http://www.w3.org/2000/svg">
<path d="M166.776 33.2161C166.083 30.706 165.177 27.5867 164.073 23.7818C163.766 22.7146 163.441 21.5924 163.099 20.4154C162.861 19.5973 162.623 18.791 162.391 17.9965C160.844 12.7172 159.371 7.91181 158.094 4.03628C158.074 3.96565 158.047 3.89797 158.024 3.8244C157.816 3.26291 157.496 2.74975 157.084 2.31619C156.671 1.88263 156.175 1.53774 155.626 1.3025C155.561 1.27308 155.494 1.24659 155.426 1.22305C155.151 1.1024 154.869 0.996463 154.584 0.899354C152.456 0.164416 150.199 -0.124938 147.955 0.049178C145.71 0.223294 143.525 0.85718 141.535 1.91164C140.232 5.22218 138.712 9.44202 137.112 14.1857C136.472 16.0808 135.821 18.0612 135.172 20.0975C134.823 21.1746 134.491 22.2369 134.165 23.2845C132.865 27.4661 131.723 31.3622 130.808 34.7375L130.755 34.9199C130.552 35.7084 130.602 36.5409 130.898 37.2994C131.193 38.0578 131.719 38.7037 132.401 39.1457C132.664 39.3194 132.948 39.4589 133.247 39.5606L133.305 39.5782C133.37 39.5988 133.437 39.6136 133.502 39.6312L133.719 39.6871C133.735 39.6888 133.75 39.6888 133.766 39.6871H133.792C136.333 40.2871 138.995 40.0951 141.424 39.1368L143.055 31.8831L143.164 31.3916H155.077L155.209 31.9625L156.037 35.5879L156.407 37.2123C156.651 37.7667 157.008 38.2643 157.454 38.6735C157.9 39.0828 158.426 39.3948 158.998 39.59H159.019L159.312 39.6783H159.356C159.391 39.6882 159.426 39.6951 159.462 39.6989C159.476 39.7017 159.49 39.7017 159.503 39.6989H159.53C159.539 39.6976 159.549 39.6976 159.559 39.6989C160.379 39.8958 161.219 39.9946 162.063 39.9932C163.454 39.9952 164.833 39.7305 166.125 39.2133L166.078 39.1368C166.315 39.0963 166.547 39.0261 166.767 38.9279C166.841 38.8985 166.908 38.8602 166.979 38.8278C166.994 38.8234 167.009 38.8165 167.023 38.8072C167.406 38.5978 167.739 38.3077 168 37.9568C167.739 36.765 167.319 35.1789 166.776 33.2161ZM153.037 22.7371L152.999 22.6018H145.312L146.486 18.6674L148.861 10.7221C149.072 9.85694 149.583 9.85694 149.782 10.7044L152.996 22.6047H153.131C153.096 22.647 153.064 22.6912 153.034 22.7371H153.037Z" fill="#091929"/>
<path d="M126.754 0.781649L126.66 0.75222L126.499 0.70219H126.478L126.317 0.663942L126.226 0.643341C125.343 0.4167 124.435 0.302995 123.523 0.304932C121.908 0.302447 120.312 0.658177 118.85 1.34664C118.624 1.45258 118.41 1.5644 118.199 1.688L116.643 7.65874L114.195 17.1607L112.276 24.6116L111.304 28.4018L111.254 28.5813C111.225 28.6337 111.182 28.6776 111.131 28.7085C111.08 28.7395 111.021 28.7565 110.961 28.7579C110.895 28.7578 110.831 28.7392 110.775 28.7044C110.719 28.6696 110.673 28.6199 110.644 28.5608L110.621 28.4813L109.605 25.0472L107.354 17.4138L104.577 7.99715L103.163 3.24469L103.034 3.22703C102.589 2.3835 101.934 1.6703 101.132 1.15748C100.329 0.644657 99.408 0.349845 98.4578 0.301987C98.3669 0.301987 98.27 0.301987 98.1643 0.301987C98.0587 0.301987 97.9736 0.301987 97.8708 0.301987C95.4951 0.362581 93.2041 1.19955 91.3463 2.68558C92.5203 7.0702 94.0142 11.8845 95.7488 16.943C96.3006 18.5595 96.8788 20.1966 97.4834 21.8543C97.5421 22.0103 97.5979 22.1663 97.6566 22.3252C99.4939 27.3278 101.39 32.0567 103.265 36.3501C103.365 36.5737 103.462 36.8003 103.559 37.021C104.03 37.8596 104.775 38.5093 105.669 38.8602L105.98 38.9632H106.015C106.192 39.0191 106.371 39.0721 106.553 39.1192C106.584 39.1312 106.617 39.1411 106.649 39.1486L106.699 39.1633L106.89 39.2133L107.081 39.2604C109.595 39.8748 112.217 39.8919 114.738 39.3104H114.788C114.873 39.2928 114.958 39.2722 115.044 39.2457H115.085C115.107 39.2416 115.128 39.2357 115.149 39.2281H115.167L115.293 39.1927L115.369 39.1692C115.748 39.0516 116.112 38.8896 116.452 38.6866C116.477 38.6755 116.5 38.6627 116.523 38.6483C117.425 38.1083 118.153 37.3198 118.621 36.3766C118.695 36.2147 118.762 36.0499 118.833 35.8851L118.85 35.8498C119.913 33.3868 120.981 30.7884 122.044 28.0782C122.14 27.828 122.243 27.5691 122.337 27.316C122.971 25.6916 123.596 24.0319 124.213 22.3369L124.327 22.028C124.988 20.2172 125.596 18.4379 126.15 16.6899C127.397 12.782 128.395 9.03887 129.167 5.53999C129.196 5.40757 129.226 5.27221 129.249 5.13979C129.258 5.12039 129.263 5.09937 129.264 5.078C129.294 4.88325 129.31 4.68653 129.311 4.48946C129.318 3.6825 129.077 2.89298 128.619 2.22916C128.161 1.56533 127.51 1.05972 126.754 0.781649Z" fill="#091929"/>
<path d="M42.8893 18.3761L41.5656 5.1339L41.5069 4.54536C41.3799 3.78611 41.0636 3.07133 40.5875 2.46737C40.1113 1.86342 39.4907 1.38984 38.7832 1.09062L38.7509 1.07591C38.6541 1.03766 38.5543 0.999398 38.4574 0.969971L38.3664 0.937605C36.9604 0.446905 35.482 0.197202 33.9933 0.198984C33.3639 0.199689 32.7353 0.243938 32.1119 0.331409C30.9196 0.50123 29.7556 0.831842 28.6516 1.31427C28.4725 1.39078 28.2994 1.47024 28.1321 1.55557L24.9036 11.9786L22.3736 20.0858V20.1034V20.1417C22.357 20.1824 22.3285 20.2171 22.2918 20.2413C22.2551 20.2655 22.212 20.2779 22.1681 20.277C22.1255 20.2774 22.0837 20.2646 22.0486 20.2404C22.0134 20.2162 21.9865 20.1817 21.9715 20.1417L21.9568 20.1034V20.0563L21.8805 19.8121L21.4579 18.4849L19.4356 12.0963L17.0553 4.57773V4.5483C16.7169 3.44606 16.0387 2.47972 15.1182 1.78804C14.6842 1.45993 14.2046 1.19722 13.6948 1.00823H13.6742L13.4776 0.940551C12.9972 0.770255 12.5072 0.628755 12.0101 0.516801C9.87059 0.0431379 7.64818 0.0997015 5.53543 0.681592C4.23078 1.19367 3.01529 1.90978 1.93417 2.80328L1.24151 14.1327L0.771905 22.4458L0.686791 23.9525L0.0176093 35.6144L0 35.8851V35.9646C0 36.0617 0 36.1559 0 36.2589C0 36.3619 0.0146752 36.4443 0.0322853 36.5384C0.0615591 36.726 0.108735 36.9102 0.173165 37.0887C0.196645 37.1652 0.228928 37.2417 0.258278 37.3153C0.293498 37.3977 0.331653 37.483 0.372743 37.5595C0.413833 37.636 0.443186 37.689 0.481341 37.7538C0.519497 37.8185 0.542976 37.8479 0.572326 37.8891C0.699158 38.0806 0.845739 38.2581 1.00964 38.4188C1.06247 38.4688 1.11237 38.5159 1.16813 38.563L1.25325 38.6307C1.30314 38.6748 1.35891 38.716 1.40881 38.7543C1.48019 38.8077 1.55467 38.8568 1.63186 38.9014C1.70818 38.9485 1.78449 38.9897 1.8608 39.0279C1.93711 39.0662 2.00461 39.0986 2.07505 39.1309L2.12201 39.1515L2.2218 39.1898L2.31572 39.2192C2.32963 39.2269 2.34441 39.2328 2.35975 39.2369H2.39203L2.4566 39.2604H2.5065H2.55346C5.3069 40.073 8.24874 39.9697 10.9388 38.9662L11.2528 26.6921V26.4214L11.5669 14.1974V13.7442C11.5652 13.6928 11.5818 13.6425 11.6136 13.6022C11.6455 13.5618 11.6905 13.5341 11.7408 13.5239C11.7911 13.5137 11.8433 13.5216 11.8883 13.5463C11.9333 13.571 11.9681 13.6109 11.9866 13.6589V13.6972L12.2449 14.5241L13.2134 17.6786L15.5233 25.1708L15.5761 25.3473L16.5065 28.3548L16.5212 28.393V28.4313V28.4607L16.5358 28.5048C16.6419 28.8387 16.7983 29.1542 16.9996 29.4406C17.3169 29.8908 17.7364 30.259 18.2235 30.5147C18.379 30.5853 18.5405 30.653 18.7048 30.7177C18.75 30.7342 18.796 30.7479 18.8428 30.759C20.1621 31.2512 21.5708 31.4559 22.9752 31.3595C24.3796 31.2631 25.7473 30.8677 26.9874 30.1998C27.1488 30.1145 27.3015 30.0262 27.4511 29.9291L28.6692 25.7828L31.1962 17.2049L32.1002 14.1268L32.1266 14.0503C32.1439 14.0134 32.1713 13.9822 32.2056 13.9603C32.2399 13.9384 32.2797 13.9267 32.3203 13.9267C32.3704 13.9269 32.4189 13.9442 32.4579 13.9757C32.4968 14.0073 32.5239 14.0513 32.5346 14.1003V14.1709L32.7312 19.9239L32.9778 26.8305L33.2948 35.894V36.1411C33.3384 36.8148 33.5784 37.4609 33.9848 37.9991C34.3912 38.5374 34.9463 38.9442 35.5811 39.1692C35.6442 39.1952 35.7089 39.2168 35.7748 39.2339C37.2655 39.7519 38.85 39.9411 40.4203 39.7887C41.9905 39.6364 43.5095 39.146 44.8734 38.3511L43.353 23.0491L42.8893 18.3761Z" fill="#091929"/>
<path d="M69.3719 0.196045C65.4617 0.196045 61.6394 1.35859 58.3882 3.53666C55.137 5.71473 52.603 8.81051 51.1066 12.4325C49.6102 16.0545 49.2187 20.0401 49.9816 23.8852C50.7444 27.7303 52.6273 31.2622 55.3923 34.0344C58.1572 36.8066 61.6799 38.6944 65.5149 39.4592C69.35 40.2241 73.3251 39.8316 76.9377 38.3313C80.5502 36.831 83.6379 34.2903 85.8103 31.0306C87.9826 27.7709 89.1422 23.9385 89.1422 20.0181C89.1422 14.7609 87.0592 9.71914 83.3516 6.00178C79.6439 2.28443 74.6153 0.196045 69.3719 0.196045ZM77.2583 29.3671C76.4604 30.2799 75.431 30.9591 74.2793 31.3328L74.1443 31.374C73.9916 31.4181 73.8507 31.4593 73.6864 31.4887C72.9357 31.6965 72.1731 31.8586 71.4029 31.9743V34.0165C71.4029 34.1366 71.3793 34.2554 71.3334 34.3663C71.2875 34.4772 71.2202 34.5779 71.1354 34.6626C71.0506 34.7474 70.95 34.8145 70.8393 34.8602C70.7285 34.9058 70.6099 34.9291 70.4902 34.9287H68.3476C68.2281 34.9287 68.1098 34.9052 67.9994 34.8593C67.889 34.8135 67.7887 34.7463 67.7042 34.6616C67.6198 34.5769 67.5527 34.4763 67.507 34.3656C67.4613 34.2549 67.4378 34.1363 67.4378 34.0165V32.1391C65.4034 32.0262 63.3996 31.5922 61.5002 30.8531C61.3652 30.8001 61.2243 30.7472 61.0952 30.6913C61.0952 30.6913 61.0952 30.6913 61.0776 30.6913C60.8238 30.5502 60.6059 30.3522 60.441 30.1128C60.276 29.8734 60.1684 29.5991 60.1266 29.3111C60.1068 29.2144 60.098 29.1156 60.1002 29.0169V28.9198C60.1049 28.7958 60.1216 28.6726 60.1501 28.5519V28.5225L60.244 28.2459V28.2106L60.6931 26.9334C60.7734 26.6743 60.9078 26.4352 61.0875 26.2323C61.2672 26.0293 61.4879 25.8671 61.735 25.7564C62.121 25.5788 62.5558 25.5384 62.9677 25.6416C63.0851 25.6857 63.2055 25.7328 63.3258 25.7681H63.3522C64.146 26.0528 64.9578 26.2838 65.7824 26.4597C67.1422 26.7554 68.5294 26.9063 69.9208 26.9099H69.9941C70.4339 26.9218 70.8608 26.7596 71.1821 26.4584C71.5035 26.1571 71.6935 25.741 71.7111 25.3002C71.7078 25.0305 71.6356 24.7661 71.5015 24.5323C71.3675 24.2984 71.1759 24.1029 70.9451 23.9642C70.9011 23.9336 70.8538 23.908 70.8042 23.8877C69.7723 23.3307 68.6916 22.8697 67.5757 22.5106L67.4583 22.4752C67.0709 22.3487 66.6952 22.2163 66.3166 22.0721C65.3947 21.7097 64.5001 21.2809 63.6399 20.7891H63.6193C63.1447 20.5627 62.7001 20.278 62.2956 19.9416C62.2956 19.9416 62.278 19.9416 62.2663 19.921C61.2675 19.0972 60.5359 17.9939 60.1648 16.7517C59.9934 16.1946 59.9015 15.616 59.8918 15.0331C59.889 14.9763 59.889 14.9193 59.8918 14.8625C59.8923 13.4635 60.338 12.1013 61.1642 10.9739C61.9903 9.84658 63.1538 9.013 64.4851 8.59451L64.7992 8.50918C64.9606 8.47092 65.1191 8.43561 65.2864 8.40324C65.2864 8.40324 65.2864 8.38853 65.2864 8.3797C65.9938 8.2073 66.71 8.0737 67.4319 7.97949V6.02847C67.4319 5.78653 67.5277 5.55451 67.6984 5.38343C67.869 5.21235 68.1004 5.11623 68.3417 5.11623H70.4843C70.604 5.11585 70.7226 5.13916 70.8334 5.18484C70.9441 5.23051 71.0448 5.29764 71.1296 5.38239C71.2144 5.46713 71.2816 5.56783 71.3275 5.6787C71.3734 5.78957 71.3971 5.90843 71.3971 6.02847V7.87355C73.0806 8.00105 74.7408 8.34522 76.3367 8.89761L76.4923 8.95352H76.5128C76.5979 8.98295 76.6801 9.00649 76.7593 9.04181H76.774C77.0037 9.14733 77.2099 9.29809 77.3804 9.48514C77.5508 9.67219 77.682 9.8917 77.7661 10.1306C77.8429 10.3377 77.8817 10.557 77.8805 10.778C77.8807 10.9715 77.852 11.1639 77.7954 11.3489L77.3874 12.6142V12.6554L77.2876 12.9733C77.1284 13.3456 76.8522 13.6555 76.5011 13.8561C76.2096 14.0289 75.877 14.1194 75.5384 14.118C75.3647 14.1186 75.1918 14.0949 75.0248 14.0473L74.9396 14.0179L74.8809 13.9973L74.8193 13.9767H74.7958L74.6549 13.9296L74.5874 13.9061C74.0141 13.7236 73.4271 13.5667 72.8264 13.4353C71.4451 13.1299 70.035 12.975 68.6206 12.9733H68.5795C67.6726 12.988 66.9476 13.6471 66.9476 14.4593C66.9499 14.6511 66.9908 14.8404 67.068 15.0159C67.1452 15.1914 67.257 15.3494 67.3967 15.4804C67.4935 15.554 67.5874 15.6305 67.6902 15.7011C67.7042 15.7079 67.7171 15.7169 67.7283 15.7276C68.3795 16.1922 69.1094 16.5342 69.8826 16.737H69.8973C71.9066 17.259 73.8205 18.0973 75.5677 19.2206C75.5677 19.2206 75.5824 19.2206 75.5883 19.2353C75.8466 19.3972 76.096 19.5679 76.3484 19.7444C77.1068 20.3391 77.7262 21.093 78.1633 21.9531C78.6003 22.8132 78.8444 23.7588 78.8784 24.7235C78.8784 24.8029 78.8784 24.8883 78.8784 24.9707C78.8905 26.5851 78.3144 28.1484 77.2583 29.3671Z" fill="#091929"/>
</svg>
